<mxfile host="Electron" modified="2023-04-25T07:09:20.569Z" agent="Mozilla/5.0 (Windows NT 10.0; Win64; x64) AppleWebKit/537.36 (KHTML, like Gecko) draw.io/21.2.1 Chrome/112.0.5615.87 Electron/24.1.2 Safari/537.36" etag="QzY4Epgvx9wBAR4AilWx" version="21.2.1" type="device" pages="2">
  <diagram name="APB_AsyncFIFO" id="K5ZiqF98-9xZNVDpUfoe">
    <mxGraphModel dx="11538" dy="1022" grid="1" gridSize="10" guides="1" tooltips="1" connect="1" arrows="1" fold="1" page="1" pageScale="1" pageWidth="9950" pageHeight="9900" math="0" shadow="0">
      <root>
        <mxCell id="0" />
        <mxCell id="1" parent="0" />
        <mxCell id="u3tjTeUdtAl94vQaHwDf-1" value="upstream&lt;br&gt;device" style="rounded=0;whiteSpace=wrap;html=1;fontSize=15;fontStyle=3" parent="1" vertex="1">
          <mxGeometry x="760" y="1360" width="80" height="160" as="geometry" />
        </mxCell>
        <mxCell id="u3tjTeUdtAl94vQaHwDf-2" value="" style="endArrow=classic;html=1;rounded=0;exitX=1;exitY=0.25;exitDx=0;exitDy=0;entryX=0;entryY=0.25;entryDx=0;entryDy=0;fontSize=15;fontStyle=3" parent="1" source="u3tjTeUdtAl94vQaHwDf-1" target="u3tjTeUdtAl94vQaHwDf-3" edge="1">
          <mxGeometry width="50" height="50" relative="1" as="geometry">
            <mxPoint x="1060" y="1450" as="sourcePoint" />
            <mxPoint x="920" y="1440" as="targetPoint" />
          </mxGeometry>
        </mxCell>
        <mxCell id="u3tjTeUdtAl94vQaHwDf-3" value="APB port&lt;br style=&quot;font-size: 15px;&quot;&gt;(slave)" style="rounded=0;whiteSpace=wrap;html=1;fontSize=15;fontStyle=3" parent="1" vertex="1">
          <mxGeometry x="920" y="1360" width="80" height="160" as="geometry" />
        </mxCell>
        <mxCell id="u3tjTeUdtAl94vQaHwDf-4" value="" style="endArrow=classic;html=1;rounded=0;exitX=1;exitY=0.25;exitDx=0;exitDy=0;fontSize=15;fontStyle=3" parent="1" source="u3tjTeUdtAl94vQaHwDf-3" edge="1">
          <mxGeometry width="50" height="50" relative="1" as="geometry">
            <mxPoint x="1250" y="1450" as="sourcePoint" />
            <mxPoint x="1080" y="1400" as="targetPoint" />
          </mxGeometry>
        </mxCell>
        <mxCell id="u3tjTeUdtAl94vQaHwDf-5" value="Register&lt;br style=&quot;font-size: 15px;&quot;&gt;&amp;nbsp;Block" style="rounded=0;whiteSpace=wrap;html=1;fontSize=15;fontStyle=3" parent="1" vertex="1">
          <mxGeometry x="1080" y="1360" width="80" height="160" as="geometry" />
        </mxCell>
        <mxCell id="u3tjTeUdtAl94vQaHwDf-9" value="Afifo 1&lt;br style=&quot;font-size: 15px;&quot;&gt;TX" style="rounded=0;whiteSpace=wrap;html=1;fontSize=15;fontStyle=3" parent="1" vertex="1">
          <mxGeometry x="1240" y="1280" width="80" height="80" as="geometry" />
        </mxCell>
        <mxCell id="u3tjTeUdtAl94vQaHwDf-10" value="Afifo 2&lt;br style=&quot;font-size: 15px;&quot;&gt;RX" style="rounded=0;whiteSpace=wrap;html=1;fontSize=15;fontStyle=3" parent="1" vertex="1">
          <mxGeometry x="1240" y="1520" width="80" height="80" as="geometry" />
        </mxCell>
        <mxCell id="u3tjTeUdtAl94vQaHwDf-11" value="Afifo 3&lt;br style=&quot;font-size: 15px;&quot;&gt;TX" style="rounded=0;whiteSpace=wrap;html=1;fontSize=15;fontStyle=3" parent="1" vertex="1">
          <mxGeometry x="1560" y="1280" width="80" height="80" as="geometry" />
        </mxCell>
        <mxCell id="u3tjTeUdtAl94vQaHwDf-12" value="Afifo 4&lt;br style=&quot;font-size: 15px;&quot;&gt;RX" style="rounded=0;whiteSpace=wrap;html=1;fontSize=15;fontStyle=3" parent="1" vertex="1">
          <mxGeometry x="1560" y="1520" width="80" height="80" as="geometry" />
        </mxCell>
        <mxCell id="u3tjTeUdtAl94vQaHwDf-13" value="Register&lt;br style=&quot;font-size: 15px;&quot;&gt;Block" style="rounded=0;whiteSpace=wrap;html=1;fontSize=15;fontStyle=3" parent="1" vertex="1">
          <mxGeometry x="1720" y="1360" width="80" height="160" as="geometry" />
        </mxCell>
        <mxCell id="u3tjTeUdtAl94vQaHwDf-14" value="APB port&lt;br style=&quot;font-size: 15px;&quot;&gt;(slave)" style="rounded=0;whiteSpace=wrap;html=1;fontSize=15;fontStyle=3" parent="1" vertex="1">
          <mxGeometry x="1880" y="1360" width="80" height="160" as="geometry" />
        </mxCell>
        <mxCell id="u3tjTeUdtAl94vQaHwDf-16" value="IP1: Clock domain 1 -&amp;nbsp; clk1&amp;nbsp;" style="swimlane;whiteSpace=wrap;html=1;startSize=40;fontSize=15;fontStyle=3" parent="1" vertex="1">
          <mxGeometry x="880" y="1200" width="480" height="440" as="geometry" />
        </mxCell>
        <mxCell id="u3tjTeUdtAl94vQaHwDf-34" value="" style="endArrow=classic;html=1;rounded=0;exitX=0;exitY=0.5;exitDx=0;exitDy=0;fontSize=15;fontStyle=3" parent="u3tjTeUdtAl94vQaHwDf-16" source="u3tjTeUdtAl94vQaHwDf-11" edge="1">
          <mxGeometry width="50" height="50" relative="1" as="geometry">
            <mxPoint x="600" y="270" as="sourcePoint" />
            <mxPoint x="440" y="360" as="targetPoint" />
            <Array as="points">
              <mxPoint x="600" y="120" />
              <mxPoint x="520" y="360" />
            </Array>
          </mxGeometry>
        </mxCell>
        <mxCell id="u3tjTeUdtAl94vQaHwDf-17" value="IP2: Clock domain 2 - clk2" style="swimlane;whiteSpace=wrap;html=1;startSize=40;fontSize=15;fontStyle=3" parent="1" vertex="1">
          <mxGeometry x="1520" y="1200" width="480" height="440" as="geometry" />
        </mxCell>
        <mxCell id="u3tjTeUdtAl94vQaHwDf-29" value="" style="endArrow=classic;html=1;rounded=0;exitX=1;exitY=0.75;exitDx=0;exitDy=0;fontSize=15;fontStyle=3" parent="u3tjTeUdtAl94vQaHwDf-17" source="u3tjTeUdtAl94vQaHwDf-13" edge="1">
          <mxGeometry width="50" height="50" relative="1" as="geometry">
            <mxPoint x="290" y="430" as="sourcePoint" />
            <mxPoint x="360" y="280" as="targetPoint" />
          </mxGeometry>
        </mxCell>
        <mxCell id="u3tjTeUdtAl94vQaHwDf-32" value="" style="endArrow=classic;html=1;rounded=0;exitX=0;exitY=0.25;exitDx=0;exitDy=0;fontSize=15;fontStyle=3" parent="u3tjTeUdtAl94vQaHwDf-17" source="u3tjTeUdtAl94vQaHwDf-14" edge="1">
          <mxGeometry width="50" height="50" relative="1" as="geometry">
            <mxPoint x="400" y="150" as="sourcePoint" />
            <mxPoint x="280" y="200" as="targetPoint" />
          </mxGeometry>
        </mxCell>
        <mxCell id="u3tjTeUdtAl94vQaHwDf-19" value="" style="endArrow=classic;html=1;rounded=0;entryX=0;entryY=0.5;entryDx=0;entryDy=0;exitX=1;exitY=0.5;exitDx=0;exitDy=0;fontSize=15;fontStyle=3" parent="1" source="u3tjTeUdtAl94vQaHwDf-9" target="u3tjTeUdtAl94vQaHwDf-12" edge="1">
          <mxGeometry width="50" height="50" relative="1" as="geometry">
            <mxPoint x="1359" y="1320" as="sourcePoint" />
            <mxPoint x="1409" y="1270" as="targetPoint" />
            <Array as="points">
              <mxPoint x="1400" y="1320" />
              <mxPoint x="1480" y="1560" />
            </Array>
          </mxGeometry>
        </mxCell>
        <mxCell id="u3tjTeUdtAl94vQaHwDf-20" value="" style="endArrow=classic;html=1;rounded=0;entryX=0;entryY=0.5;entryDx=0;entryDy=0;exitX=1;exitY=0.25;exitDx=0;exitDy=0;fontSize=15;fontStyle=3" parent="1" source="u3tjTeUdtAl94vQaHwDf-5" target="u3tjTeUdtAl94vQaHwDf-9" edge="1">
          <mxGeometry width="50" height="50" relative="1" as="geometry">
            <mxPoint x="1190" y="1370" as="sourcePoint" />
            <mxPoint x="1240" y="1320" as="targetPoint" />
            <Array as="points">
              <mxPoint x="1200" y="1400" />
              <mxPoint x="1200" y="1320" />
            </Array>
          </mxGeometry>
        </mxCell>
        <mxCell id="u3tjTeUdtAl94vQaHwDf-28" value="" style="endArrow=classic;html=1;rounded=0;exitX=1;exitY=0.5;exitDx=0;exitDy=0;entryX=0;entryY=0.75;entryDx=0;entryDy=0;fontSize=15;fontStyle=3" parent="1" source="u3tjTeUdtAl94vQaHwDf-12" target="u3tjTeUdtAl94vQaHwDf-13" edge="1">
          <mxGeometry width="50" height="50" relative="1" as="geometry">
            <mxPoint x="1710" y="1620" as="sourcePoint" />
            <mxPoint x="1760" y="1580" as="targetPoint" />
            <Array as="points">
              <mxPoint x="1680" y="1560" />
              <mxPoint x="1680" y="1480" />
            </Array>
          </mxGeometry>
        </mxCell>
        <mxCell id="u3tjTeUdtAl94vQaHwDf-30" value="" style="endArrow=classic;html=1;rounded=0;exitX=1;exitY=0.75;exitDx=0;exitDy=0;entryX=0;entryY=0.75;entryDx=0;entryDy=0;fontSize=15;fontStyle=3" parent="1" source="u3tjTeUdtAl94vQaHwDf-14" target="u3tjTeUdtAl94vQaHwDf-23" edge="1">
          <mxGeometry width="50" height="50" relative="1" as="geometry">
            <mxPoint x="1960" y="1580" as="sourcePoint" />
            <mxPoint x="2010" y="1530" as="targetPoint" />
          </mxGeometry>
        </mxCell>
        <mxCell id="u3tjTeUdtAl94vQaHwDf-31" value="" style="endArrow=classic;html=1;rounded=0;entryX=1;entryY=0.25;entryDx=0;entryDy=0;exitX=0;exitY=0.25;exitDx=0;exitDy=0;fontSize=15;fontStyle=3" parent="1" source="u3tjTeUdtAl94vQaHwDf-23" target="u3tjTeUdtAl94vQaHwDf-14" edge="1">
          <mxGeometry width="50" height="50" relative="1" as="geometry">
            <mxPoint x="1770" y="1810" as="sourcePoint" />
            <mxPoint x="1820" y="1760" as="targetPoint" />
          </mxGeometry>
        </mxCell>
        <mxCell id="u3tjTeUdtAl94vQaHwDf-33" value="" style="endArrow=classic;html=1;rounded=0;exitX=0;exitY=0.25;exitDx=0;exitDy=0;entryX=1;entryY=0.5;entryDx=0;entryDy=0;fontSize=15;fontStyle=3" parent="1" source="u3tjTeUdtAl94vQaHwDf-13" target="u3tjTeUdtAl94vQaHwDf-11" edge="1">
          <mxGeometry width="50" height="50" relative="1" as="geometry">
            <mxPoint x="1690" y="1340" as="sourcePoint" />
            <mxPoint x="1740" y="1290" as="targetPoint" />
            <Array as="points">
              <mxPoint x="1680" y="1400" />
              <mxPoint x="1680" y="1320" />
            </Array>
          </mxGeometry>
        </mxCell>
        <mxCell id="u3tjTeUdtAl94vQaHwDf-35" value="" style="endArrow=classic;html=1;rounded=0;entryX=1;entryY=0.75;entryDx=0;entryDy=0;exitX=0;exitY=0.5;exitDx=0;exitDy=0;fontSize=15;fontStyle=3" parent="1" source="u3tjTeUdtAl94vQaHwDf-10" target="u3tjTeUdtAl94vQaHwDf-5" edge="1">
          <mxGeometry width="50" height="50" relative="1" as="geometry">
            <mxPoint x="1070" y="1640" as="sourcePoint" />
            <mxPoint x="1120" y="1590" as="targetPoint" />
            <Array as="points">
              <mxPoint x="1200" y="1560" />
              <mxPoint x="1200" y="1480" />
            </Array>
          </mxGeometry>
        </mxCell>
        <mxCell id="u3tjTeUdtAl94vQaHwDf-36" value="" style="endArrow=classic;html=1;rounded=0;exitX=0;exitY=0.75;exitDx=0;exitDy=0;entryX=1;entryY=0.75;entryDx=0;entryDy=0;fontSize=15;fontStyle=3" parent="1" source="u3tjTeUdtAl94vQaHwDf-5" target="u3tjTeUdtAl94vQaHwDf-3" edge="1">
          <mxGeometry width="50" height="50" relative="1" as="geometry">
            <mxPoint x="990" y="1640" as="sourcePoint" />
            <mxPoint x="1040" y="1590" as="targetPoint" />
          </mxGeometry>
        </mxCell>
        <mxCell id="u3tjTeUdtAl94vQaHwDf-39" value="hand sharking&lt;br style=&quot;font-size: 15px;&quot;&gt;clock domain 3: clk3" style="rounded=0;whiteSpace=wrap;html=1;fontSize=15;fontStyle=3" parent="1" vertex="1">
          <mxGeometry x="1360" y="1080" width="160" height="80" as="geometry" />
        </mxCell>
        <mxCell id="u3tjTeUdtAl94vQaHwDf-37" value="" style="endArrow=classic;html=1;rounded=0;exitX=0;exitY=0.75;exitDx=0;exitDy=0;entryX=1;entryY=0.75;entryDx=0;entryDy=0;fontSize=15;fontStyle=3" parent="1" source="u3tjTeUdtAl94vQaHwDf-3" target="u3tjTeUdtAl94vQaHwDf-1" edge="1">
          <mxGeometry width="50" height="50" relative="1" as="geometry">
            <mxPoint x="1040" y="1610" as="sourcePoint" />
            <mxPoint x="990" y="1560" as="targetPoint" />
          </mxGeometry>
        </mxCell>
        <mxCell id="u3tjTeUdtAl94vQaHwDf-23" value="Device" style="rounded=0;whiteSpace=wrap;html=1;fontSize=15;fontStyle=3" parent="1" vertex="1">
          <mxGeometry x="2040" y="1360" width="80" height="160" as="geometry" />
        </mxCell>
        <mxCell id="xAWOX-nUp3SgtnM6J4ez-1" value="&lt;b&gt;Register&lt;br style=&quot;font-size: 15px;&quot;&gt;Block&lt;/b&gt;" style="rounded=0;whiteSpace=wrap;html=1;fontSize=15;fontStyle=2" parent="1" vertex="1">
          <mxGeometry x="720" y="1960" width="80" height="560" as="geometry" />
        </mxCell>
        <mxCell id="xAWOX-nUp3SgtnM6J4ez-2" value="" style="endArrow=classic;html=1;rounded=0;exitX=0.25;exitY=1;exitDx=0;exitDy=0;entryX=1;entryY=0;entryDx=0;entryDy=0;" parent="1" source="u3tjTeUdtAl94vQaHwDf-39" target="u3tjTeUdtAl94vQaHwDf-9" edge="1">
          <mxGeometry width="50" height="50" relative="1" as="geometry">
            <mxPoint x="1390" y="1240" as="sourcePoint" />
            <mxPoint x="1140" y="1000" as="targetPoint" />
            <Array as="points">
              <mxPoint x="1400" y="1280" />
            </Array>
          </mxGeometry>
        </mxCell>
        <mxCell id="xAWOX-nUp3SgtnM6J4ez-3" value="&lt;b&gt;hand sharking&lt;br style=&quot;font-size: 15px;&quot;&gt;clock domain 3: clk3&lt;/b&gt;" style="rounded=0;whiteSpace=wrap;html=1;fontSize=15;fontStyle=2" parent="1" vertex="1">
          <mxGeometry x="1360" y="1680" width="160" height="80" as="geometry" />
        </mxCell>
        <mxCell id="xAWOX-nUp3SgtnM6J4ez-4" value="" style="endArrow=classic;html=1;rounded=0;entryX=1;entryY=1;entryDx=0;entryDy=0;exitX=0.25;exitY=0;exitDx=0;exitDy=0;" parent="1" source="xAWOX-nUp3SgtnM6J4ez-3" target="u3tjTeUdtAl94vQaHwDf-10" edge="1">
          <mxGeometry width="50" height="50" relative="1" as="geometry">
            <mxPoint x="1220" y="1860" as="sourcePoint" />
            <mxPoint x="1330" y="1670" as="targetPoint" />
            <Array as="points">
              <mxPoint x="1400" y="1600" />
            </Array>
          </mxGeometry>
        </mxCell>
        <mxCell id="xAWOX-nUp3SgtnM6J4ez-5" value="" style="endArrow=classic;html=1;rounded=0;entryX=0;entryY=1;entryDx=0;entryDy=0;exitX=0.75;exitY=0;exitDx=0;exitDy=0;" parent="1" source="xAWOX-nUp3SgtnM6J4ez-3" target="u3tjTeUdtAl94vQaHwDf-12" edge="1">
          <mxGeometry width="50" height="50" relative="1" as="geometry">
            <mxPoint x="1200" y="1890" as="sourcePoint" />
            <mxPoint x="1250" y="1840" as="targetPoint" />
            <Array as="points">
              <mxPoint x="1480" y="1600" />
            </Array>
          </mxGeometry>
        </mxCell>
        <mxCell id="xAWOX-nUp3SgtnM6J4ez-6" value="" style="endArrow=classic;html=1;rounded=0;exitX=0.75;exitY=1;exitDx=0;exitDy=0;entryX=0;entryY=0;entryDx=0;entryDy=0;" parent="1" source="u3tjTeUdtAl94vQaHwDf-39" target="u3tjTeUdtAl94vQaHwDf-11" edge="1">
          <mxGeometry width="50" height="50" relative="1" as="geometry">
            <mxPoint x="1650" y="1050" as="sourcePoint" />
            <mxPoint x="1700" y="1000" as="targetPoint" />
            <Array as="points">
              <mxPoint x="1480" y="1280" />
            </Array>
          </mxGeometry>
        </mxCell>
        <mxCell id="xAWOX-nUp3SgtnM6J4ez-7" value="&lt;b&gt;Afifo 1&lt;br style=&quot;font-size: 15px;&quot;&gt;TX&lt;/b&gt;" style="rounded=0;whiteSpace=wrap;html=1;fontSize=15;fontStyle=2" parent="1" vertex="1">
          <mxGeometry x="1200.4" y="1960" width="80" height="240" as="geometry" />
        </mxCell>
        <mxCell id="xAWOX-nUp3SgtnM6J4ez-8" value="" style="endArrow=classic;html=1;rounded=0;entryX=0;entryY=0;entryDx=0;entryDy=0;fontSize=15;fontStyle=2" parent="1" target="xAWOX-nUp3SgtnM6J4ez-7" edge="1">
          <mxGeometry width="50" height="50" relative="1" as="geometry">
            <mxPoint x="1120.4" y="1960" as="sourcePoint" />
            <mxPoint x="1030.4" y="1780" as="targetPoint" />
          </mxGeometry>
        </mxCell>
        <mxCell id="xAWOX-nUp3SgtnM6J4ez-9" value="s_dstm.valid" style="text;html=1;strokeColor=none;fillColor=none;align=center;verticalAlign=middle;whiteSpace=wrap;rounded=0;fontSize=15;fontStyle=3" parent="1" vertex="1">
          <mxGeometry x="1020.0000000000001" y="1950" width="90" height="20" as="geometry" />
        </mxCell>
        <mxCell id="xAWOX-nUp3SgtnM6J4ez-10" value="" style="endArrow=classic;html=1;rounded=0;entryX=-0.015;entryY=0.163;entryDx=0;entryDy=0;entryPerimeter=0;fontSize=15;fontStyle=2" parent="1" target="xAWOX-nUp3SgtnM6J4ez-7" edge="1">
          <mxGeometry width="50" height="50" relative="1" as="geometry">
            <mxPoint x="1120.4" y="2000" as="sourcePoint" />
            <mxPoint x="1090.4" y="2060" as="targetPoint" />
          </mxGeometry>
        </mxCell>
        <mxCell id="xAWOX-nUp3SgtnM6J4ez-11" value="s_dstm.data" style="text;html=1;strokeColor=none;fillColor=none;align=center;verticalAlign=middle;whiteSpace=wrap;rounded=0;fontSize=15;fontStyle=3" parent="1" vertex="1">
          <mxGeometry x="1030.4" y="1990" width="80" height="20" as="geometry" />
        </mxCell>
        <mxCell id="xAWOX-nUp3SgtnM6J4ez-12" value="" style="endArrow=classic;html=1;rounded=0;exitX=1;exitY=0;exitDx=0;exitDy=0;fontSize=15;fontStyle=3" parent="1" source="xAWOX-nUp3SgtnM6J4ez-7" edge="1">
          <mxGeometry width="50" height="50" relative="1" as="geometry">
            <mxPoint x="1370.4" y="1930" as="sourcePoint" />
            <mxPoint x="1320.4" y="1960" as="targetPoint" />
          </mxGeometry>
        </mxCell>
        <mxCell id="xAWOX-nUp3SgtnM6J4ez-13" value="s_dstm.ready" style="text;html=1;strokeColor=none;fillColor=none;align=center;verticalAlign=middle;whiteSpace=wrap;rounded=0;fontSize=15;fontStyle=3" parent="1" vertex="1">
          <mxGeometry x="1350.4" y="1950" width="70" height="20" as="geometry" />
        </mxCell>
        <mxCell id="xAWOX-nUp3SgtnM6J4ez-14" value="" style="endArrow=classic;html=1;rounded=0;fontSize=15;fontStyle=2" parent="1" edge="1">
          <mxGeometry width="50" height="50" relative="1" as="geometry">
            <mxPoint x="1120.4" y="2040" as="sourcePoint" />
            <mxPoint x="1200.4" y="2040" as="targetPoint" />
          </mxGeometry>
        </mxCell>
        <mxCell id="xAWOX-nUp3SgtnM6J4ez-15" value="m_dstm.ready" style="text;html=1;strokeColor=none;fillColor=none;align=center;verticalAlign=middle;whiteSpace=wrap;rounded=0;fontSize=15;fontStyle=3" parent="1" vertex="1">
          <mxGeometry x="1020.0000000000001" y="2030" width="90" height="20" as="geometry" />
        </mxCell>
        <mxCell id="xAWOX-nUp3SgtnM6J4ez-16" value="" style="endArrow=classic;html=1;rounded=0;exitX=1.006;exitY=0.174;exitDx=0;exitDy=0;exitPerimeter=0;fontSize=15;fontStyle=3" parent="1" source="xAWOX-nUp3SgtnM6J4ez-7" edge="1">
          <mxGeometry width="50" height="50" relative="1" as="geometry">
            <mxPoint x="1310.4" y="2270" as="sourcePoint" />
            <mxPoint x="1320.4" y="2002" as="targetPoint" />
          </mxGeometry>
        </mxCell>
        <mxCell id="xAWOX-nUp3SgtnM6J4ez-17" value="m_dstm.valid" style="text;html=1;strokeColor=none;fillColor=none;align=center;verticalAlign=middle;whiteSpace=wrap;rounded=0;fontSize=15;fontStyle=3" parent="1" vertex="1">
          <mxGeometry x="1345.4" y="1990" width="70" height="20" as="geometry" />
        </mxCell>
        <mxCell id="xAWOX-nUp3SgtnM6J4ez-18" value="" style="endArrow=classic;html=1;rounded=0;exitX=1.017;exitY=0.33;exitDx=0;exitDy=0;exitPerimeter=0;fontSize=15;fontStyle=3" parent="1" source="xAWOX-nUp3SgtnM6J4ez-7" edge="1">
          <mxGeometry width="50" height="50" relative="1" as="geometry">
            <mxPoint x="1410.4" y="2110" as="sourcePoint" />
            <mxPoint x="1320.4" y="2040" as="targetPoint" />
          </mxGeometry>
        </mxCell>
        <mxCell id="xAWOX-nUp3SgtnM6J4ez-19" value="m_dstm.data" style="text;html=1;strokeColor=none;fillColor=none;align=center;verticalAlign=middle;whiteSpace=wrap;rounded=0;fontSize=15;fontStyle=3" parent="1" vertex="1">
          <mxGeometry x="1342.9" y="2030" width="75" height="20" as="geometry" />
        </mxCell>
        <mxCell id="xAWOX-nUp3SgtnM6J4ez-20" value="" style="endArrow=classic;html=1;rounded=0;entryX=0.005;entryY=0.631;entryDx=0;entryDy=0;entryPerimeter=0;fontSize=15;fontStyle=2" parent="1" edge="1">
          <mxGeometry width="50" height="50" relative="1" as="geometry">
            <mxPoint x="1120" y="2082" as="sourcePoint" />
            <mxPoint x="1200.4" y="2081.92" as="targetPoint" />
          </mxGeometry>
        </mxCell>
        <mxCell id="xAWOX-nUp3SgtnM6J4ez-21" value="s_stalvl.full" style="text;html=1;strokeColor=none;fillColor=none;align=center;verticalAlign=middle;whiteSpace=wrap;rounded=0;fontSize=15;fontStyle=3" parent="1" vertex="1">
          <mxGeometry x="1040" y="2070" width="60" height="20" as="geometry" />
        </mxCell>
        <mxCell id="xAWOX-nUp3SgtnM6J4ez-22" value="" style="endArrow=classic;html=1;rounded=0;entryX=0;entryY=0.75;entryDx=0;entryDy=0;fontSize=15;fontStyle=2" parent="1" edge="1">
          <mxGeometry width="50" height="50" relative="1" as="geometry">
            <mxPoint x="1120" y="2120" as="sourcePoint" />
            <mxPoint x="1200" y="2120" as="targetPoint" />
            <Array as="points" />
          </mxGeometry>
        </mxCell>
        <mxCell id="xAWOX-nUp3SgtnM6J4ez-23" value="s_stalvl.empty" style="text;html=1;strokeColor=none;fillColor=none;align=center;verticalAlign=middle;whiteSpace=wrap;rounded=0;fontSize=15;fontStyle=3" parent="1" vertex="1">
          <mxGeometry x="1020" y="2110" width="80" height="20" as="geometry" />
        </mxCell>
        <mxCell id="xAWOX-nUp3SgtnM6J4ez-25" value="" style="endArrow=classic;html=1;rounded=0;entryX=0;entryY=1;entryDx=0;entryDy=0;fontSize=15;fontStyle=2" parent="1" edge="1">
          <mxGeometry width="50" height="50" relative="1" as="geometry">
            <mxPoint x="1120" y="2200" as="sourcePoint" />
            <mxPoint x="1200" y="2200" as="targetPoint" />
          </mxGeometry>
        </mxCell>
        <mxCell id="xAWOX-nUp3SgtnM6J4ez-26" value="s_stalvl.almostfull" style="text;html=1;strokeColor=none;fillColor=none;align=center;verticalAlign=middle;whiteSpace=wrap;rounded=0;fontSize=15;fontStyle=3" parent="1" vertex="1">
          <mxGeometry x="989.9999999999999" y="2190" width="110" height="20" as="geometry" />
        </mxCell>
        <mxCell id="xAWOX-nUp3SgtnM6J4ez-28" value="" style="endArrow=classic;html=1;rounded=0;entryX=0;entryY=0.875;entryDx=0;entryDy=0;entryPerimeter=0;fontSize=15;fontStyle=2" parent="1" edge="1">
          <mxGeometry width="50" height="50" relative="1" as="geometry">
            <mxPoint x="1120" y="2160" as="sourcePoint" />
            <mxPoint x="1200" y="2160" as="targetPoint" />
          </mxGeometry>
        </mxCell>
        <mxCell id="xAWOX-nUp3SgtnM6J4ez-29" value="s_stalvl.almostempty" style="text;html=1;strokeColor=none;fillColor=none;align=center;verticalAlign=middle;whiteSpace=wrap;rounded=0;fontSize=15;fontStyle=3" parent="1" vertex="1">
          <mxGeometry x="969.9999999999999" y="2150" width="120" height="20" as="geometry" />
        </mxCell>
        <mxCell id="xAWOX-nUp3SgtnM6J4ez-30" value="" style="endArrow=classic;html=1;rounded=0;fontSize=15;fontStyle=3" parent="1" edge="1">
          <mxGeometry width="50" height="50" relative="1" as="geometry">
            <mxPoint x="1280.4" y="2080" as="sourcePoint" />
            <mxPoint x="1320.4" y="2080" as="targetPoint" />
          </mxGeometry>
        </mxCell>
        <mxCell id="xAWOX-nUp3SgtnM6J4ez-31" value="m_stalvl.full" style="text;html=1;strokeColor=none;fillColor=none;align=center;verticalAlign=middle;whiteSpace=wrap;rounded=0;fontSize=15;fontStyle=3" parent="1" vertex="1">
          <mxGeometry x="1340.4" y="2070" width="70" height="20" as="geometry" />
        </mxCell>
        <mxCell id="xAWOX-nUp3SgtnM6J4ez-32" value="m_stalvl.empty" style="text;html=1;strokeColor=none;fillColor=none;align=center;verticalAlign=middle;whiteSpace=wrap;rounded=0;fontSize=15;fontStyle=3" parent="1" vertex="1">
          <mxGeometry x="1345.4" y="2110" width="80" height="20" as="geometry" />
        </mxCell>
        <mxCell id="xAWOX-nUp3SgtnM6J4ez-33" value="" style="endArrow=classic;html=1;rounded=0;exitX=1;exitY=0.75;exitDx=0;exitDy=0;fontSize=15;fontStyle=3" parent="1" edge="1">
          <mxGeometry width="50" height="50" relative="1" as="geometry">
            <mxPoint x="1280.4" y="2120" as="sourcePoint" />
            <mxPoint x="1320.4" y="2120" as="targetPoint" />
          </mxGeometry>
        </mxCell>
        <mxCell id="xAWOX-nUp3SgtnM6J4ez-34" value="" style="endArrow=classic;html=1;rounded=0;exitX=1.035;exitY=0.874;exitDx=0;exitDy=0;exitPerimeter=0;fontSize=15;fontStyle=3" parent="1" edge="1">
          <mxGeometry width="50" height="50" relative="1" as="geometry">
            <mxPoint x="1283.2000000000003" y="2159.68" as="sourcePoint" />
            <mxPoint x="1320.4" y="2160" as="targetPoint" />
          </mxGeometry>
        </mxCell>
        <mxCell id="xAWOX-nUp3SgtnM6J4ez-35" value="m_stalvl.almostfull" style="text;html=1;strokeColor=none;fillColor=none;align=center;verticalAlign=middle;whiteSpace=wrap;rounded=0;fontSize=15;fontStyle=3" parent="1" vertex="1">
          <mxGeometry x="1345.4" y="2150" width="100" height="20" as="geometry" />
        </mxCell>
        <mxCell id="xAWOX-nUp3SgtnM6J4ez-36" value="" style="endArrow=classic;html=1;rounded=0;exitX=1;exitY=1;exitDx=0;exitDy=0;fontSize=15;fontStyle=3" parent="1" edge="1">
          <mxGeometry width="50" height="50" relative="1" as="geometry">
            <mxPoint x="1280.4" y="2200" as="sourcePoint" />
            <mxPoint x="1320.4" y="2200" as="targetPoint" />
          </mxGeometry>
        </mxCell>
        <mxCell id="xAWOX-nUp3SgtnM6J4ez-37" value="m_stalvl.almostempty" style="text;html=1;strokeColor=none;fillColor=none;align=center;verticalAlign=middle;whiteSpace=wrap;rounded=0;fontSize=14;fontStyle=3" parent="1" vertex="1">
          <mxGeometry x="1360" y="2190" width="85.4" height="20" as="geometry" />
        </mxCell>
        <mxCell id="xAWOX-nUp3SgtnM6J4ez-38" value="&lt;b&gt;Afifo 4&lt;br style=&quot;font-size: 15px;&quot;&gt;RX&lt;/b&gt;" style="rounded=0;whiteSpace=wrap;html=1;fontSize=15;fontStyle=2" parent="1" vertex="1">
          <mxGeometry x="1800" y="2280" width="80" height="240" as="geometry" />
        </mxCell>
        <mxCell id="xAWOX-nUp3SgtnM6J4ez-39" value="" style="endArrow=classic;html=1;rounded=0;entryX=0;entryY=0;entryDx=0;entryDy=0;fontSize=15;fontStyle=2" parent="1" target="xAWOX-nUp3SgtnM6J4ez-38" edge="1">
          <mxGeometry width="50" height="50" relative="1" as="geometry">
            <mxPoint x="1480" y="1960" as="sourcePoint" />
            <mxPoint x="1720" y="2040" as="targetPoint" />
            <Array as="points">
              <mxPoint x="1720" y="1960" />
              <mxPoint x="1760" y="1960" />
              <mxPoint x="1760" y="2280" />
            </Array>
          </mxGeometry>
        </mxCell>
        <mxCell id="xAWOX-nUp3SgtnM6J4ez-40" value="" style="endArrow=classic;html=1;rounded=0;fontSize=15;fontStyle=2" parent="1" edge="1">
          <mxGeometry width="50" height="50" relative="1" as="geometry">
            <mxPoint x="1480" y="2000" as="sourcePoint" />
            <mxPoint x="1800" y="2320" as="targetPoint" />
            <Array as="points">
              <mxPoint x="1720" y="2000" />
              <mxPoint x="1720" y="2320" />
            </Array>
          </mxGeometry>
        </mxCell>
        <mxCell id="xAWOX-nUp3SgtnM6J4ez-41" value="" style="endArrow=classic;html=1;rounded=0;entryX=-0.004;entryY=0.34;entryDx=0;entryDy=0;entryPerimeter=0;fontSize=15;fontStyle=2" parent="1" target="xAWOX-nUp3SgtnM6J4ez-38" edge="1">
          <mxGeometry width="50" height="50" relative="1" as="geometry">
            <mxPoint x="1480" y="2040" as="sourcePoint" />
            <mxPoint x="1580" y="2030" as="targetPoint" />
            <Array as="points">
              <mxPoint x="1680" y="2040" />
              <mxPoint x="1680" y="2362" />
            </Array>
          </mxGeometry>
        </mxCell>
        <mxCell id="xAWOX-nUp3SgtnM6J4ez-42" value="" style="endArrow=classic;html=1;rounded=0;entryX=0;entryY=0.5;entryDx=0;entryDy=0;fontSize=15;fontStyle=2" parent="1" target="xAWOX-nUp3SgtnM6J4ez-38" edge="1">
          <mxGeometry width="50" height="50" relative="1" as="geometry">
            <mxPoint x="1480" y="2080" as="sourcePoint" />
            <mxPoint x="1460" y="2300" as="targetPoint" />
            <Array as="points">
              <mxPoint x="1640" y="2080" />
              <mxPoint x="1640" y="2400" />
            </Array>
          </mxGeometry>
        </mxCell>
        <mxCell id="xAWOX-nUp3SgtnM6J4ez-44" value="" style="endArrow=classic;html=1;rounded=0;entryX=0;entryY=1;entryDx=0;entryDy=0;fontSize=15;fontStyle=2" parent="1" target="xAWOX-nUp3SgtnM6J4ez-38" edge="1">
          <mxGeometry width="50" height="50" relative="1" as="geometry">
            <mxPoint x="1480" y="2200" as="sourcePoint" />
            <mxPoint x="1530" y="2150" as="targetPoint" />
            <Array as="points">
              <mxPoint x="1520" y="2200" />
              <mxPoint x="1520" y="2520" />
            </Array>
          </mxGeometry>
        </mxCell>
        <mxCell id="xAWOX-nUp3SgtnM6J4ez-45" value="" style="endArrow=classic;html=1;rounded=0;entryX=0;entryY=0.833;entryDx=0;entryDy=0;entryPerimeter=0;fontSize=15;fontStyle=2" parent="1" target="xAWOX-nUp3SgtnM6J4ez-38" edge="1">
          <mxGeometry width="50" height="50" relative="1" as="geometry">
            <mxPoint x="1480" y="2160" as="sourcePoint" />
            <mxPoint x="1660" y="2430" as="targetPoint" />
            <Array as="points">
              <mxPoint x="1560" y="2160" />
              <mxPoint x="1560" y="2480" />
            </Array>
          </mxGeometry>
        </mxCell>
        <mxCell id="xAWOX-nUp3SgtnM6J4ez-46" value="" style="endArrow=classic;html=1;rounded=0;entryX=-0.037;entryY=0.664;entryDx=0;entryDy=0;entryPerimeter=0;fontSize=15;fontStyle=2" parent="1" target="xAWOX-nUp3SgtnM6J4ez-38" edge="1">
          <mxGeometry width="50" height="50" relative="1" as="geometry">
            <mxPoint x="1480" y="2120" as="sourcePoint" />
            <mxPoint x="1530" y="2070" as="targetPoint" />
            <Array as="points">
              <mxPoint x="1600" y="2120" />
              <mxPoint x="1600" y="2439" />
            </Array>
          </mxGeometry>
        </mxCell>
        <mxCell id="xAWOX-nUp3SgtnM6J4ez-47" value="&lt;b&gt;APB port&lt;br style=&quot;font-size: 15px;&quot;&gt;Slave&lt;/b&gt;" style="rounded=0;whiteSpace=wrap;html=1;fontSize=15;fontStyle=2" parent="1" vertex="1">
          <mxGeometry x="360" y="1960" width="80" height="560" as="geometry" />
        </mxCell>
        <mxCell id="xAWOX-nUp3SgtnM6J4ez-48" value="" style="endArrow=classic;html=1;rounded=0;entryX=0;entryY=0;entryDx=0;entryDy=0;fontSize=15;fontStyle=2" parent="1" target="xAWOX-nUp3SgtnM6J4ez-47" edge="1">
          <mxGeometry width="50" height="50" relative="1" as="geometry">
            <mxPoint x="280" y="1960" as="sourcePoint" />
            <mxPoint x="240" y="2100" as="targetPoint" />
          </mxGeometry>
        </mxCell>
        <mxCell id="xAWOX-nUp3SgtnM6J4ez-49" value="paddr" style="text;html=1;strokeColor=none;fillColor=none;align=center;verticalAlign=middle;whiteSpace=wrap;rounded=0;fontSize=15;fontStyle=3" parent="1" vertex="1">
          <mxGeometry x="220" y="1950" width="60" height="20" as="geometry" />
        </mxCell>
        <mxCell id="xAWOX-nUp3SgtnM6J4ez-50" value="" style="endArrow=classic;html=1;rounded=0;entryX=-0.025;entryY=0.071;entryDx=0;entryDy=0;entryPerimeter=0;fontSize=15;fontStyle=2" parent="1" target="xAWOX-nUp3SgtnM6J4ez-47" edge="1">
          <mxGeometry width="50" height="50" relative="1" as="geometry">
            <mxPoint x="280" y="2000" as="sourcePoint" />
            <mxPoint x="180" y="2040" as="targetPoint" />
          </mxGeometry>
        </mxCell>
        <mxCell id="xAWOX-nUp3SgtnM6J4ez-51" value="psel" style="text;html=1;strokeColor=none;fillColor=none;align=center;verticalAlign=middle;whiteSpace=wrap;rounded=0;fontSize=15;fontStyle=3" parent="1" vertex="1">
          <mxGeometry x="220" y="1990" width="60" height="20" as="geometry" />
        </mxCell>
        <mxCell id="xAWOX-nUp3SgtnM6J4ez-52" value="" style="endArrow=classic;html=1;rounded=0;entryX=-0.025;entryY=0.142;entryDx=0;entryDy=0;entryPerimeter=0;fontSize=15;fontStyle=2" parent="1" target="xAWOX-nUp3SgtnM6J4ez-47" edge="1">
          <mxGeometry width="50" height="50" relative="1" as="geometry">
            <mxPoint x="280" y="2040" as="sourcePoint" />
            <mxPoint x="80" y="2070" as="targetPoint" />
          </mxGeometry>
        </mxCell>
        <mxCell id="xAWOX-nUp3SgtnM6J4ez-53" value="" style="endArrow=classic;html=1;rounded=0;entryX=0;entryY=0.214;entryDx=0;entryDy=0;entryPerimeter=0;fontSize=15;fontStyle=2" parent="1" target="xAWOX-nUp3SgtnM6J4ez-47" edge="1">
          <mxGeometry width="50" height="50" relative="1" as="geometry">
            <mxPoint x="280" y="2080" as="sourcePoint" />
            <mxPoint x="150" y="2050" as="targetPoint" />
          </mxGeometry>
        </mxCell>
        <mxCell id="xAWOX-nUp3SgtnM6J4ez-54" value="penable" style="text;html=1;strokeColor=none;fillColor=none;align=center;verticalAlign=middle;whiteSpace=wrap;rounded=0;fontSize=15;fontStyle=3" parent="1" vertex="1">
          <mxGeometry x="220" y="2030" width="60" height="20" as="geometry" />
        </mxCell>
        <mxCell id="xAWOX-nUp3SgtnM6J4ez-55" value="pwrite" style="text;html=1;strokeColor=none;fillColor=none;align=center;verticalAlign=middle;whiteSpace=wrap;rounded=0;fontSize=15;fontStyle=3" parent="1" vertex="1">
          <mxGeometry x="220" y="2070" width="60" height="20" as="geometry" />
        </mxCell>
        <mxCell id="xAWOX-nUp3SgtnM6J4ez-56" value="" style="endArrow=classic;html=1;rounded=0;fontSize=15;fontStyle=2" parent="1" edge="1">
          <mxGeometry width="50" height="50" relative="1" as="geometry">
            <mxPoint x="280" y="2120" as="sourcePoint" />
            <mxPoint x="360" y="2120" as="targetPoint" />
          </mxGeometry>
        </mxCell>
        <mxCell id="xAWOX-nUp3SgtnM6J4ez-57" value="pwdata" style="text;html=1;strokeColor=none;fillColor=none;align=center;verticalAlign=middle;whiteSpace=wrap;rounded=0;fontSize=15;fontStyle=3" parent="1" vertex="1">
          <mxGeometry x="220" y="2110" width="60" height="20" as="geometry" />
        </mxCell>
        <mxCell id="xAWOX-nUp3SgtnM6J4ez-59" value="" style="endArrow=classic;html=1;rounded=0;entryX=-0.005;entryY=0.358;entryDx=0;entryDy=0;entryPerimeter=0;fontSize=15;fontStyle=2" parent="1" target="xAWOX-nUp3SgtnM6J4ez-47" edge="1">
          <mxGeometry width="50" height="50" relative="1" as="geometry">
            <mxPoint x="280" y="2160" as="sourcePoint" />
            <mxPoint x="360" y="2157" as="targetPoint" />
          </mxGeometry>
        </mxCell>
        <mxCell id="xAWOX-nUp3SgtnM6J4ez-60" value="pstrb" style="text;html=1;strokeColor=none;fillColor=none;align=center;verticalAlign=middle;whiteSpace=wrap;rounded=0;fontSize=15;fontStyle=3" parent="1" vertex="1">
          <mxGeometry x="220" y="2150" width="60" height="20" as="geometry" />
        </mxCell>
        <mxCell id="xAWOX-nUp3SgtnM6J4ez-61" value="" style="endArrow=classic;html=1;rounded=0;exitX=0;exitY=1;exitDx=0;exitDy=0;fontSize=15;fontStyle=2" parent="1" source="xAWOX-nUp3SgtnM6J4ez-47" edge="1">
          <mxGeometry width="50" height="50" relative="1" as="geometry">
            <mxPoint x="150" y="2280" as="sourcePoint" />
            <mxPoint x="280" y="2520" as="targetPoint" />
          </mxGeometry>
        </mxCell>
        <mxCell id="xAWOX-nUp3SgtnM6J4ez-62" value="pslverr" style="text;html=1;strokeColor=none;fillColor=none;align=center;verticalAlign=middle;whiteSpace=wrap;rounded=0;fontSize=15;fontStyle=3" parent="1" vertex="1">
          <mxGeometry x="220" y="2510" width="60" height="20" as="geometry" />
        </mxCell>
        <mxCell id="xAWOX-nUp3SgtnM6J4ez-64" value="prdata" style="text;html=1;strokeColor=none;fillColor=none;align=center;verticalAlign=middle;whiteSpace=wrap;rounded=0;fontSize=15;fontStyle=3" parent="1" vertex="1">
          <mxGeometry x="220" y="2470" width="60" height="20" as="geometry" />
        </mxCell>
        <mxCell id="xAWOX-nUp3SgtnM6J4ez-65" value="" style="endArrow=classic;html=1;rounded=0;exitX=0;exitY=1;exitDx=0;exitDy=0;fontSize=15;fontStyle=2" parent="1" edge="1">
          <mxGeometry width="50" height="50" relative="1" as="geometry">
            <mxPoint x="360" y="2479.67" as="sourcePoint" />
            <mxPoint x="280" y="2479.67" as="targetPoint" />
          </mxGeometry>
        </mxCell>
        <mxCell id="xAWOX-nUp3SgtnM6J4ez-66" value="" style="endArrow=classic;html=1;rounded=0;exitX=-0.012;exitY=0.86;exitDx=0;exitDy=0;exitPerimeter=0;fontSize=15;fontStyle=2" parent="1" source="xAWOX-nUp3SgtnM6J4ez-47" edge="1">
          <mxGeometry width="50" height="50" relative="1" as="geometry">
            <mxPoint x="170" y="2440" as="sourcePoint" />
            <mxPoint x="280" y="2440" as="targetPoint" />
          </mxGeometry>
        </mxCell>
        <mxCell id="xAWOX-nUp3SgtnM6J4ez-67" value="pready" style="text;html=1;strokeColor=none;fillColor=none;align=center;verticalAlign=middle;whiteSpace=wrap;rounded=0;fontSize=15;fontStyle=3" parent="1" vertex="1">
          <mxGeometry x="220" y="2430" width="60" height="20" as="geometry" />
        </mxCell>
        <mxCell id="xAWOX-nUp3SgtnM6J4ez-68" value="&lt;b&gt;Afifo 2&lt;br style=&quot;font-size: 15px;&quot;&gt;RX&lt;/b&gt;" style="rounded=0;whiteSpace=wrap;html=1;fontSize=15;fontStyle=2" parent="1" vertex="1">
          <mxGeometry x="1200.4" y="2280" width="80" height="240" as="geometry" />
        </mxCell>
        <mxCell id="xAWOX-nUp3SgtnM6J4ez-69" value="" style="endArrow=classic;html=1;rounded=0;exitX=0;exitY=1;exitDx=0;exitDy=0;fontSize=15;fontStyle=2" parent="1" source="xAWOX-nUp3SgtnM6J4ez-68" edge="1">
          <mxGeometry width="50" height="50" relative="1" as="geometry">
            <mxPoint x="1020.4000000000001" y="2400" as="sourcePoint" />
            <mxPoint x="1120.4" y="2520" as="targetPoint" />
          </mxGeometry>
        </mxCell>
        <mxCell id="xAWOX-nUp3SgtnM6J4ez-70" value="" style="endArrow=classic;html=1;rounded=0;fontSize=15;fontStyle=2" parent="1" edge="1">
          <mxGeometry width="50" height="50" relative="1" as="geometry">
            <mxPoint x="1200.4" y="2480" as="sourcePoint" />
            <mxPoint x="1120.4" y="2481" as="targetPoint" />
          </mxGeometry>
        </mxCell>
        <mxCell id="xAWOX-nUp3SgtnM6J4ez-71" value="" style="endArrow=classic;html=1;rounded=0;fontSize=15;fontStyle=2" parent="1" edge="1">
          <mxGeometry width="50" height="50" relative="1" as="geometry">
            <mxPoint x="1200.4" y="2440" as="sourcePoint" />
            <mxPoint x="1120.4" y="2440" as="targetPoint" />
          </mxGeometry>
        </mxCell>
        <mxCell id="xAWOX-nUp3SgtnM6J4ez-72" value="" style="endArrow=classic;html=1;rounded=0;exitX=0;exitY=0.5;exitDx=0;exitDy=0;fontSize=15;fontStyle=2" parent="1" source="xAWOX-nUp3SgtnM6J4ez-68" edge="1">
          <mxGeometry width="50" height="50" relative="1" as="geometry">
            <mxPoint x="920.4" y="2430" as="sourcePoint" />
            <mxPoint x="1120.4" y="2400" as="targetPoint" />
          </mxGeometry>
        </mxCell>
        <mxCell id="xAWOX-nUp3SgtnM6J4ez-73" value="" style="endArrow=classic;html=1;rounded=0;exitX=-0.005;exitY=0.338;exitDx=0;exitDy=0;exitPerimeter=0;fontSize=15;fontStyle=2" parent="1" source="xAWOX-nUp3SgtnM6J4ez-68" edge="1">
          <mxGeometry width="50" height="50" relative="1" as="geometry">
            <mxPoint x="1000.4" y="2400" as="sourcePoint" />
            <mxPoint x="1120.4" y="2360" as="targetPoint" />
          </mxGeometry>
        </mxCell>
        <mxCell id="xAWOX-nUp3SgtnM6J4ez-74" value="" style="endArrow=classic;html=1;rounded=0;exitX=-0.015;exitY=0.168;exitDx=0;exitDy=0;exitPerimeter=0;fontSize=15;fontStyle=2" parent="1" source="xAWOX-nUp3SgtnM6J4ez-68" edge="1">
          <mxGeometry width="50" height="50" relative="1" as="geometry">
            <mxPoint x="990.4" y="2390" as="sourcePoint" />
            <mxPoint x="1120.4" y="2320" as="targetPoint" />
          </mxGeometry>
        </mxCell>
        <mxCell id="xAWOX-nUp3SgtnM6J4ez-75" value="" style="endArrow=classic;html=1;rounded=0;exitX=0;exitY=0;exitDx=0;exitDy=0;fontSize=15;fontStyle=2" parent="1" source="xAWOX-nUp3SgtnM6J4ez-68" edge="1">
          <mxGeometry width="50" height="50" relative="1" as="geometry">
            <mxPoint x="1010.4" y="2340" as="sourcePoint" />
            <mxPoint x="1120.4" y="2280" as="targetPoint" />
          </mxGeometry>
        </mxCell>
        <mxCell id="xAWOX-nUp3SgtnM6J4ez-76" value="m_stalvl.almostempty" style="text;html=1;strokeColor=none;fillColor=none;align=center;verticalAlign=middle;whiteSpace=wrap;rounded=0;fontSize=15;fontStyle=3" parent="1" vertex="1">
          <mxGeometry x="969.9999999999999" y="2510" width="120" height="20" as="geometry" />
        </mxCell>
        <mxCell id="xAWOX-nUp3SgtnM6J4ez-77" value="m_stalvl.almostfull" style="text;html=1;strokeColor=none;fillColor=none;align=center;verticalAlign=middle;whiteSpace=wrap;rounded=0;fontSize=15;fontStyle=3" parent="1" vertex="1">
          <mxGeometry x="995" y="2470" width="100" height="20" as="geometry" />
        </mxCell>
        <mxCell id="xAWOX-nUp3SgtnM6J4ez-78" value="m_stalvl.empty" style="text;html=1;strokeColor=none;fillColor=none;align=center;verticalAlign=middle;whiteSpace=wrap;rounded=0;fontSize=15;fontStyle=3" parent="1" vertex="1">
          <mxGeometry x="1022.9000000000001" y="2430" width="80" height="20" as="geometry" />
        </mxCell>
        <mxCell id="xAWOX-nUp3SgtnM6J4ez-79" value="m_stalvl.full" style="text;html=1;strokeColor=none;fillColor=none;align=center;verticalAlign=middle;whiteSpace=wrap;rounded=0;fontSize=15;fontStyle=3" parent="1" vertex="1">
          <mxGeometry x="1035.4" y="2390" width="70" height="20" as="geometry" />
        </mxCell>
        <mxCell id="xAWOX-nUp3SgtnM6J4ez-80" value="m_dstm.data" style="text;html=1;strokeColor=none;fillColor=none;align=center;verticalAlign=middle;whiteSpace=wrap;rounded=0;fontSize=15;fontStyle=3" parent="1" vertex="1">
          <mxGeometry x="1027.9" y="2350" width="75" height="20" as="geometry" />
        </mxCell>
        <mxCell id="xAWOX-nUp3SgtnM6J4ez-81" value="m_dstm.valid" style="text;html=1;strokeColor=none;fillColor=none;align=center;verticalAlign=middle;whiteSpace=wrap;rounded=0;fontSize=15;fontStyle=3" parent="1" vertex="1">
          <mxGeometry x="1030.4" y="2310" width="70" height="20" as="geometry" />
        </mxCell>
        <mxCell id="xAWOX-nUp3SgtnM6J4ez-82" value="s_dstm.ready" style="text;html=1;strokeColor=none;fillColor=none;align=center;verticalAlign=middle;whiteSpace=wrap;rounded=0;fontSize=15;fontStyle=3" parent="1" vertex="1">
          <mxGeometry x="1030.4" y="2270" width="70" height="20" as="geometry" />
        </mxCell>
        <mxCell id="xAWOX-nUp3SgtnM6J4ez-86" value="" style="shape=flexArrow;endArrow=classic;html=1;rounded=0;fillColor=#008a00;strokeColor=#005700;fontStyle=0" parent="1" edge="1">
          <mxGeometry width="50" height="50" relative="1" as="geometry">
            <mxPoint x="360" y="1840" as="sourcePoint" />
            <mxPoint x="1760" y="1840" as="targetPoint" />
          </mxGeometry>
        </mxCell>
        <mxCell id="xAWOX-nUp3SgtnM6J4ez-87" value="WRITE DIRECTION" style="text;html=1;strokeColor=#005700;fillColor=#008a00;align=center;verticalAlign=middle;whiteSpace=wrap;rounded=0;fontColor=#ffffff;fontStyle=0" parent="1" vertex="1">
          <mxGeometry x="960" y="1760" width="240" height="40" as="geometry" />
        </mxCell>
        <mxCell id="xAWOX-nUp3SgtnM6J4ez-88" value="" style="shape=flexArrow;endArrow=classic;html=1;rounded=0;fillColor=#008a00;strokeColor=#005700;fontStyle=0" parent="1" edge="1">
          <mxGeometry width="50" height="50" relative="1" as="geometry">
            <mxPoint x="1760" y="2640" as="sourcePoint" />
            <mxPoint x="360" y="2640" as="targetPoint" />
          </mxGeometry>
        </mxCell>
        <mxCell id="xAWOX-nUp3SgtnM6J4ez-89" value="READ DIRECTION" style="text;html=1;strokeColor=#005700;fillColor=#008a00;align=center;verticalAlign=middle;whiteSpace=wrap;rounded=0;fontColor=#ffffff;fontStyle=0" parent="1" vertex="1">
          <mxGeometry x="960.4" y="2680" width="240" height="40" as="geometry" />
        </mxCell>
        <mxCell id="xAWOX-nUp3SgtnM6J4ez-91" value="&lt;b&gt;Dont save data, save status&lt;/b&gt;" style="shape=callout;whiteSpace=wrap;html=1;perimeter=calloutPerimeter;fontSize=15;fontStyle=0" parent="1" vertex="1">
          <mxGeometry x="640" y="1880" width="240" height="80" as="geometry" />
        </mxCell>
        <mxCell id="xAWOX-nUp3SgtnM6J4ez-93" value="&lt;span style=&quot;font-size: 15px;&quot;&gt;&lt;font style=&quot;font-size: 15px;&quot;&gt;Transfer status&lt;/font&gt;&lt;/span&gt;" style="shape=callout;whiteSpace=wrap;html=1;perimeter=calloutPerimeter;fontStyle=1;fontSize=15;" parent="1" vertex="1">
          <mxGeometry x="520" y="2150" width="120" height="80" as="geometry" />
        </mxCell>
        <mxCell id="xAWOX-nUp3SgtnM6J4ez-94" value="&lt;b&gt;&lt;font style=&quot;font-size: 14px;&quot;&gt;Process data, status&lt;/font&gt;&lt;/b&gt;" style="shape=callout;whiteSpace=wrap;html=1;perimeter=calloutPerimeter;" parent="1" vertex="1">
          <mxGeometry x="280" y="1880" width="240" height="80" as="geometry" />
        </mxCell>
        <mxCell id="xAWOX-nUp3SgtnM6J4ez-95" value="&lt;b&gt;&lt;font style=&quot;font-size: 15px;&quot;&gt;APB bridge&lt;/font&gt;&lt;/b&gt;" style="rounded=0;whiteSpace=wrap;html=1;" parent="1" vertex="1">
          <mxGeometry x="40" y="1960" width="80" height="560" as="geometry" />
        </mxCell>
        <mxCell id="xAWOX-nUp3SgtnM6J4ez-96" value="" style="rounded=0;whiteSpace=wrap;html=1;" parent="1" vertex="1">
          <mxGeometry x="-1080" y="1400" width="20" height="480" as="geometry" />
        </mxCell>
        <mxCell id="xAWOX-nUp3SgtnM6J4ez-97" value="" style="shape=flexArrow;endArrow=classic;startArrow=classic;html=1;rounded=0;entryX=0;entryY=0.5;entryDx=0;entryDy=0;fillColor=#d80073;strokeColor=#A50040;" parent="1" target="xAWOX-nUp3SgtnM6J4ez-1" edge="1">
          <mxGeometry width="100" height="100" relative="1" as="geometry">
            <mxPoint x="440" y="2239.6" as="sourcePoint" />
            <mxPoint x="610" y="2239.6" as="targetPoint" />
          </mxGeometry>
        </mxCell>
        <mxCell id="xAWOX-nUp3SgtnM6J4ez-98" value="" style="shape=flexArrow;endArrow=classic;startArrow=classic;html=1;rounded=0;exitX=1;exitY=0.5;exitDx=0;exitDy=0;fillColor=#d80073;strokeColor=#A50040;" parent="1" source="xAWOX-nUp3SgtnM6J4ez-1" edge="1">
          <mxGeometry width="100" height="100" relative="1" as="geometry">
            <mxPoint x="850" y="2280" as="sourcePoint" />
            <mxPoint x="960" y="2240" as="targetPoint" />
          </mxGeometry>
        </mxCell>
        <mxCell id="xAWOX-nUp3SgtnM6J4ez-99" value="" style="shape=flexArrow;endArrow=classic;startArrow=classic;html=1;rounded=0;exitX=1;exitY=0.5;exitDx=0;exitDy=0;fillColor=#d80073;strokeColor=#A50040;" parent="1" source="xAWOX-nUp3SgtnM6J4ez-95" edge="1">
          <mxGeometry width="100" height="100" relative="1" as="geometry">
            <mxPoint x="190" y="2320" as="sourcePoint" />
            <mxPoint x="200" y="2240" as="targetPoint" />
          </mxGeometry>
        </mxCell>
        <mxCell id="xAWOX-nUp3SgtnM6J4ez-101" value="" style="endArrow=none;dashed=1;html=1;rounded=0;strokeWidth=3;fillColor=#d80073;strokeColor=#A50040;" parent="1" edge="1">
          <mxGeometry width="50" height="50" relative="1" as="geometry">
            <mxPoint x="1620" y="2560" as="sourcePoint" />
            <mxPoint x="1620" y="1920" as="targetPoint" />
          </mxGeometry>
        </mxCell>
        <mxCell id="awH0RjOHOl6KBhXupfIw-1" value="pwrite: 1 - write, 0 - read" style="rounded=0;whiteSpace=wrap;html=1;fontSize=12;fontStyle=0;fillColor=#ffe6cc;strokeColor=#d79b00;" parent="1" vertex="1">
          <mxGeometry x="360" y="2840" width="200" height="40" as="geometry" />
        </mxCell>
        <mxCell id="awH0RjOHOl6KBhXupfIw-2" value="penable: 1 - enable, 0 - disable" style="rounded=0;whiteSpace=wrap;html=1;fontSize=12;fontStyle=0;fillColor=#ffe6cc;strokeColor=#d79b00;" parent="1" vertex="1">
          <mxGeometry x="360" y="2880" width="200" height="40" as="geometry" />
        </mxCell>
        <mxCell id="awH0RjOHOl6KBhXupfIw-3" value="paddr: address of data" style="rounded=0;whiteSpace=wrap;html=1;fontSize=12;fontStyle=0;fillColor=#d80073;fontColor=#ffffff;strokeColor=#A50040;" parent="1" vertex="1">
          <mxGeometry x="360" y="2960" width="200" height="40" as="geometry" />
        </mxCell>
        <mxCell id="awH0RjOHOl6KBhXupfIw-4" value="psel: select device" style="rounded=0;whiteSpace=wrap;html=1;fontSize=12;fontStyle=0;fillColor=#60a917;strokeColor=#2D7600;fontColor=#ffffff;" parent="1" vertex="1">
          <mxGeometry x="360" y="2920" width="200" height="40" as="geometry" />
        </mxCell>
        <mxCell id="awH0RjOHOl6KBhXupfIw-5" value="pstrb: choose byte lane" style="rounded=0;whiteSpace=wrap;html=1;fontSize=12;fontStyle=0;fillColor=#d80073;strokeColor=#A50040;fontColor=#ffffff;" parent="1" vertex="1">
          <mxGeometry x="360" y="3040" width="200" height="40" as="geometry" />
        </mxCell>
        <mxCell id="awH0RjOHOl6KBhXupfIw-6" value="pready: 1 - ready, 0 - no ready" style="rounded=0;whiteSpace=wrap;html=1;fontSize=12;fontStyle=0;fillColor=#ffe6cc;strokeColor=#d79b00;" parent="1" vertex="1">
          <mxGeometry x="360" y="3080" width="200" height="40" as="geometry" />
        </mxCell>
        <mxCell id="awH0RjOHOl6KBhXupfIw-7" value="pslverr: 1 - error, 0 - true" style="rounded=0;whiteSpace=wrap;html=1;fontSize=12;fontStyle=0;fillColor=#ffe6cc;strokeColor=#d79b00;" parent="1" vertex="1">
          <mxGeometry x="360" y="3120" width="200" height="40" as="geometry" />
        </mxCell>
        <mxCell id="awH0RjOHOl6KBhXupfIw-9" value="APB port - slave: interface of left side&amp;nbsp;" style="text;html=1;strokeColor=none;fillColor=none;align=center;verticalAlign=middle;whiteSpace=wrap;rounded=0;fontSize=12;fontStyle=0" parent="1" vertex="1">
          <mxGeometry x="390" y="2800" width="140" height="30" as="geometry" />
        </mxCell>
        <mxCell id="awH0RjOHOl6KBhXupfIw-11" value="" style="shape=curlyBracket;whiteSpace=wrap;html=1;rounded=1;labelPosition=left;verticalLabelPosition=middle;align=right;verticalAlign=middle;fontSize=12;fontStyle=0" parent="1" vertex="1">
          <mxGeometry x="300" y="2840" width="20" height="240" as="geometry" />
        </mxCell>
        <mxCell id="awH0RjOHOl6KBhXupfIw-14" value="APB port" style="text;html=1;strokeColor=none;fillColor=none;align=center;verticalAlign=middle;whiteSpace=wrap;rounded=0;fontStyle=0;fontSize=12;" parent="1" vertex="1">
          <mxGeometry x="100" y="2960" width="60" height="40" as="geometry" />
        </mxCell>
        <mxCell id="awH0RjOHOl6KBhXupfIw-15" value="s_dstm.valid" style="rounded=0;whiteSpace=wrap;html=1;fontSize=12;fontStyle=0;fillColor=#ffe6cc;strokeColor=#d79b00;" parent="1" vertex="1">
          <mxGeometry x="1440.4" y="2840" width="200" height="40" as="geometry" />
        </mxCell>
        <mxCell id="awH0RjOHOl6KBhXupfIw-22" value="" style="shape=flexArrow;endArrow=classic;html=1;rounded=0;fontSize=12;fontStyle=0" parent="1" edge="1">
          <mxGeometry width="50" height="50" relative="1" as="geometry">
            <mxPoint x="200" y="2940" as="sourcePoint" />
            <mxPoint x="280" y="2940" as="targetPoint" />
          </mxGeometry>
        </mxCell>
        <mxCell id="awH0RjOHOl6KBhXupfIw-23" value="" style="shape=curlyBracket;whiteSpace=wrap;html=1;rounded=1;labelPosition=left;verticalLabelPosition=middle;align=right;verticalAlign=middle;fontSize=12;fontStyle=0" parent="1" vertex="1">
          <mxGeometry x="300" y="3080" width="20" height="120" as="geometry" />
        </mxCell>
        <mxCell id="awH0RjOHOl6KBhXupfIw-24" value="" style="shape=flexArrow;endArrow=classic;html=1;rounded=0;fontSize=12;fontStyle=0" parent="1" edge="1">
          <mxGeometry width="50" height="50" relative="1" as="geometry">
            <mxPoint x="280" y="3080" as="sourcePoint" />
            <mxPoint x="200" y="3080" as="targetPoint" />
          </mxGeometry>
        </mxCell>
        <mxCell id="awH0RjOHOl6KBhXupfIw-27" value="m_dstm.ready" style="rounded=0;whiteSpace=wrap;html=1;fontSize=12;fontStyle=0;fillColor=#ffe6cc;strokeColor=#d79b00;" parent="1" vertex="1">
          <mxGeometry x="1440.4" y="2880" width="200" height="40" as="geometry" />
        </mxCell>
        <mxCell id="awH0RjOHOl6KBhXupfIw-30" value="set_almostfull" style="rounded=0;whiteSpace=wrap;html=1;fontSize=12;fontStyle=0;fillColor=#1ba1e2;strokeColor=#006EAF;fontColor=#ffffff;" parent="1" vertex="1">
          <mxGeometry x="1440.4" y="3000" width="200" height="40" as="geometry" />
        </mxCell>
        <mxCell id="awH0RjOHOl6KBhXupfIw-31" value="set_almostempty" style="rounded=0;whiteSpace=wrap;html=1;fontSize=12;fontStyle=0;fillColor=#1ba1e2;strokeColor=#006EAF;fontColor=#ffffff;" parent="1" vertex="1">
          <mxGeometry x="1440.4" y="3040" width="200" height="40" as="geometry" />
        </mxCell>
        <mxCell id="awH0RjOHOl6KBhXupfIw-32" value="s_dstm.ready: no full" style="rounded=0;whiteSpace=wrap;html=1;fontSize=12;fontStyle=0;fillColor=#ffe6cc;strokeColor=#d79b00;" parent="1" vertex="1">
          <mxGeometry x="1440" y="3120" width="200" height="40" as="geometry" />
        </mxCell>
        <mxCell id="awH0RjOHOl6KBhXupfIw-33" value="get_full" style="rounded=0;whiteSpace=wrap;html=1;fontSize=12;fontStyle=0;fillColor=#ffe6cc;strokeColor=#d79b00;" parent="1" vertex="1">
          <mxGeometry x="1440" y="3200" width="200" height="40" as="geometry" />
        </mxCell>
        <mxCell id="awH0RjOHOl6KBhXupfIw-35" value="m_dstm.valid: no empty" style="rounded=0;whiteSpace=wrap;html=1;fontSize=12;fontStyle=0;fillColor=#ffe6cc;strokeColor=#d79b00;" parent="1" vertex="1">
          <mxGeometry x="1440" y="3160" width="200" height="40" as="geometry" />
        </mxCell>
        <mxCell id="awH0RjOHOl6KBhXupfIw-36" value="get_empty" style="rounded=0;whiteSpace=wrap;html=1;fontSize=12;fontStyle=0;fillColor=#ffe6cc;strokeColor=#d79b00;" parent="1" vertex="1">
          <mxGeometry x="1440" y="3240" width="200" height="40" as="geometry" />
        </mxCell>
        <mxCell id="awH0RjOHOl6KBhXupfIw-37" value="get_almostfull" style="rounded=0;whiteSpace=wrap;html=1;fontSize=12;fontStyle=0;fillColor=#ffe6cc;strokeColor=#d79b00;" parent="1" vertex="1">
          <mxGeometry x="1440" y="3280" width="200" height="40" as="geometry" />
        </mxCell>
        <mxCell id="awH0RjOHOl6KBhXupfIw-38" value="get_almostempty" style="rounded=0;whiteSpace=wrap;html=1;fontSize=12;fontStyle=0;fillColor=#ffe6cc;strokeColor=#d79b00;" parent="1" vertex="1">
          <mxGeometry x="1440" y="3320" width="200" height="40" as="geometry" />
        </mxCell>
        <mxCell id="awH0RjOHOl6KBhXupfIw-71" value="handsharking" style="shape=callout;whiteSpace=wrap;html=1;perimeter=calloutPerimeter;fontStyle=1;fontSize=15;" parent="1" vertex="1">
          <mxGeometry x="520" y="2280" width="120" height="80" as="geometry" />
        </mxCell>
        <mxCell id="awH0RjOHOl6KBhXupfIw-72" value="handsharking" style="shape=callout;whiteSpace=wrap;html=1;perimeter=calloutPerimeter;fontSize=15;fontStyle=1" parent="1" vertex="1">
          <mxGeometry x="840" y="2280" width="120" height="80" as="geometry" />
        </mxCell>
        <mxCell id="awH0RjOHOl6KBhXupfIw-73" value="write mode" style="rounded=0;whiteSpace=wrap;html=1;fillColor=#ffe6cc;strokeColor=#d79b00;" parent="1" vertex="1">
          <mxGeometry x="680" y="2840" width="200" height="40" as="geometry" />
        </mxCell>
        <mxCell id="awH0RjOHOl6KBhXupfIw-74" value="read mode" style="rounded=0;whiteSpace=wrap;html=1;fillColor=#ffe6cc;strokeColor=#d79b00;" parent="1" vertex="1">
          <mxGeometry x="680" y="2880" width="200" height="40" as="geometry" />
        </mxCell>
        <mxCell id="awH0RjOHOl6KBhXupfIw-75" value="error: fifo không thỏa mãn" style="rounded=0;whiteSpace=wrap;html=1;fillColor=#ffe6cc;strokeColor=#d79b00;" parent="1" vertex="1">
          <mxGeometry x="680" y="3120" width="200" height="40" as="geometry" />
        </mxCell>
        <mxCell id="awH0RjOHOl6KBhXupfIw-76" value="pstrb" style="rounded=0;whiteSpace=wrap;html=1;fillColor=#d80073;fontColor=#ffffff;strokeColor=#A50040;" parent="1" vertex="1">
          <mxGeometry x="680" y="3040" width="200" height="40" as="geometry" />
        </mxCell>
        <mxCell id="awH0RjOHOl6KBhXupfIw-77" value="pready: fifo thoả mãn" style="rounded=0;whiteSpace=wrap;html=1;fillColor=#ffe6cc;strokeColor=#d79b00;" parent="1" vertex="1">
          <mxGeometry x="680" y="3080" width="200" height="40" as="geometry" />
        </mxCell>
        <mxCell id="awH0RjOHOl6KBhXupfIw-79" value="data read" style="rounded=0;whiteSpace=wrap;html=1;fillColor=#dae8fc;strokeColor=#6c8ebf;" parent="1" vertex="1">
          <mxGeometry x="680" y="3160" width="200" height="40" as="geometry" />
        </mxCell>
        <mxCell id="awH0RjOHOl6KBhXupfIw-84" value="APB port - slave: interface of right side&amp;nbsp;" style="text;html=1;strokeColor=none;fillColor=none;align=center;verticalAlign=middle;whiteSpace=wrap;rounded=0;fontSize=12;fontStyle=0" parent="1" vertex="1">
          <mxGeometry x="710" y="2800" width="140" height="30" as="geometry" />
        </mxCell>
        <mxCell id="awH0RjOHOl6KBhXupfIw-85" value="Write mode" style="rounded=0;whiteSpace=wrap;html=1;fillColor=#ffe6cc;strokeColor=#d79b00;" parent="1" vertex="1">
          <mxGeometry x="1040" y="2840" width="200" height="40" as="geometry" />
        </mxCell>
        <mxCell id="awH0RjOHOl6KBhXupfIw-86" value="Read mode" style="rounded=0;whiteSpace=wrap;html=1;fillColor=#ffe6cc;strokeColor=#d79b00;" parent="1" vertex="1">
          <mxGeometry x="1040" y="2880" width="200" height="40" as="geometry" />
        </mxCell>
        <mxCell id="awH0RjOHOl6KBhXupfIw-90" value="almostfull: N bit" style="rounded=0;whiteSpace=wrap;html=1;fillColor=#1ba1e2;fontColor=#ffffff;strokeColor=#006EAF;" parent="1" vertex="1">
          <mxGeometry x="1040" y="3000" width="200" height="40" as="geometry" />
        </mxCell>
        <mxCell id="awH0RjOHOl6KBhXupfIw-91" value="almostempty: N bit" style="rounded=0;whiteSpace=wrap;html=1;fillColor=#1ba1e2;fontColor=#ffffff;strokeColor=#006EAF;" parent="1" vertex="1">
          <mxGeometry x="1040" y="3040" width="200" height="40" as="geometry" />
        </mxCell>
        <mxCell id="awH0RjOHOl6KBhXupfIw-92" value="prdata" style="rounded=0;whiteSpace=wrap;html=1;fillColor=#dae8fc;strokeColor=#6c8ebf;" parent="1" vertex="1">
          <mxGeometry x="360" y="3160" width="200" height="40" as="geometry" />
        </mxCell>
        <mxCell id="awH0RjOHOl6KBhXupfIw-93" value="pwdata" style="rounded=0;whiteSpace=wrap;html=1;fillColor=#60a917;strokeColor=#2D7600;fontColor=#ffffff;" parent="1" vertex="1">
          <mxGeometry x="360" y="3000" width="200" height="40" as="geometry" />
        </mxCell>
        <mxCell id="awH0RjOHOl6KBhXupfIw-94" value="s_dstm.data" style="rounded=0;whiteSpace=wrap;html=1;fillColor=#d80073;strokeColor=#A50040;fontColor=#ffffff;" parent="1" vertex="1">
          <mxGeometry x="1440" y="2800" width="200" height="40" as="geometry" />
        </mxCell>
        <mxCell id="awH0RjOHOl6KBhXupfIw-95" value="m_dstm.data" style="rounded=0;whiteSpace=wrap;html=1;fillColor=#dae8fc;strokeColor=#6c8ebf;" parent="1" vertex="1">
          <mxGeometry x="1440" y="3360" width="200" height="40" as="geometry" />
        </mxCell>
        <mxCell id="awH0RjOHOl6KBhXupfIw-97" value="Register block" style="text;html=1;strokeColor=none;fillColor=none;align=center;verticalAlign=middle;whiteSpace=wrap;rounded=0;" parent="1" vertex="1">
          <mxGeometry x="1060" y="2830" width="160" as="geometry" />
        </mxCell>
        <mxCell id="Qb5Y88_ZjMLcsn727JRo-2" value="almostempty: 1 bit" style="rounded=0;whiteSpace=wrap;html=1;fillColor=#ffe6cc;strokeColor=#d79b00;" parent="1" vertex="1">
          <mxGeometry x="1040" y="3320" width="200" height="40" as="geometry" />
        </mxCell>
        <mxCell id="Qb5Y88_ZjMLcsn727JRo-3" value="almostfull: 1 bit" style="rounded=0;whiteSpace=wrap;html=1;fillColor=#ffe6cc;strokeColor=#d79b00;" parent="1" vertex="1">
          <mxGeometry x="1040" y="3280" width="200" height="40" as="geometry" />
        </mxCell>
        <mxCell id="Qb5Y88_ZjMLcsn727JRo-4" value="full: 1 bit" style="rounded=0;whiteSpace=wrap;html=1;fillColor=#ffe6cc;strokeColor=#d79b00;" parent="1" vertex="1">
          <mxGeometry x="1040.4" y="3200" width="200" height="40" as="geometry" />
        </mxCell>
        <mxCell id="Qb5Y88_ZjMLcsn727JRo-5" value="empty: 1 bit" style="rounded=0;whiteSpace=wrap;html=1;fillColor=#ffe6cc;strokeColor=#d79b00;" parent="1" vertex="1">
          <mxGeometry x="1040" y="3240" width="200" height="40" as="geometry" />
        </mxCell>
        <mxCell id="Qb5Y88_ZjMLcsn727JRo-17" value="ready: 1 bit" style="rounded=0;whiteSpace=wrap;html=1;fillColor=#ffe6cc;strokeColor=#d79b00;" parent="1" vertex="1">
          <mxGeometry x="1040" y="3120" width="200" height="40" as="geometry" />
        </mxCell>
        <mxCell id="Qb5Y88_ZjMLcsn727JRo-19" value="valid: 1 bit" style="rounded=0;whiteSpace=wrap;html=1;fillColor=#ffe6cc;strokeColor=#d79b00;" parent="1" vertex="1">
          <mxGeometry x="1040" y="3160" width="200" height="40" as="geometry" />
        </mxCell>
        <mxCell id="Qb5Y88_ZjMLcsn727JRo-21" value="" style="endArrow=classic;html=1;rounded=0;exitX=0.5;exitY=1;exitDx=0;exitDy=0;entryX=0.5;entryY=1;entryDx=0;entryDy=0;" parent="1" source="awH0RjOHOl6KBhXupfIw-95" target="awH0RjOHOl6KBhXupfIw-79" edge="1">
          <mxGeometry width="50" height="50" relative="1" as="geometry">
            <mxPoint x="1290" y="3520" as="sourcePoint" />
            <mxPoint x="1340" y="3470" as="targetPoint" />
            <Array as="points">
              <mxPoint x="1540" y="3480" />
              <mxPoint x="780" y="3480" />
            </Array>
          </mxGeometry>
        </mxCell>
        <mxCell id="Qb5Y88_ZjMLcsn727JRo-24" value="check condition" style="rounded=0;whiteSpace=wrap;html=1;fillColor=#dae8fc;strokeColor=#6c8ebf;" parent="1" vertex="1">
          <mxGeometry x="860" y="3450" width="120" height="60" as="geometry" />
        </mxCell>
        <mxCell id="Qb5Y88_ZjMLcsn727JRo-25" value="" style="shape=flexArrow;endArrow=classic;html=1;rounded=0;fontSize=12;fontStyle=0" parent="1" edge="1">
          <mxGeometry width="50" height="50" relative="1" as="geometry">
            <mxPoint x="660" y="3139.57" as="sourcePoint" />
            <mxPoint x="580" y="3139.57" as="targetPoint" />
          </mxGeometry>
        </mxCell>
        <mxCell id="Qb5Y88_ZjMLcsn727JRo-29" value="" style="endArrow=classic;html=1;rounded=0;entryX=0;entryY=0.5;entryDx=0;entryDy=0;exitX=0.998;exitY=0.166;exitDx=0;exitDy=0;exitPerimeter=0;" parent="1" source="Qb5Y88_ZjMLcsn727JRo-30" target="awH0RjOHOl6KBhXupfIw-73" edge="1">
          <mxGeometry width="50" height="50" relative="1" as="geometry">
            <mxPoint x="640" y="2860" as="sourcePoint" />
            <mxPoint x="640" y="2830" as="targetPoint" />
          </mxGeometry>
        </mxCell>
        <mxCell id="Qb5Y88_ZjMLcsn727JRo-30" value="comb" style="rounded=0;whiteSpace=wrap;html=1;fillColor=#ffe6cc;strokeColor=#d79b00;" parent="1" vertex="1">
          <mxGeometry x="600" y="2840" width="40" height="120" as="geometry" />
        </mxCell>
        <mxCell id="Qb5Y88_ZjMLcsn727JRo-31" value="" style="endArrow=classic;html=1;rounded=0;exitX=1;exitY=0.5;exitDx=0;exitDy=0;" parent="1" source="awH0RjOHOl6KBhXupfIw-1" edge="1">
          <mxGeometry width="50" height="50" relative="1" as="geometry">
            <mxPoint x="570" y="2950" as="sourcePoint" />
            <mxPoint x="600" y="2860" as="targetPoint" />
          </mxGeometry>
        </mxCell>
        <mxCell id="Qb5Y88_ZjMLcsn727JRo-32" value="" style="endArrow=classic;html=1;rounded=0;exitX=1;exitY=0.5;exitDx=0;exitDy=0;" parent="1" source="Qb5Y88_ZjMLcsn727JRo-30" edge="1">
          <mxGeometry width="50" height="50" relative="1" as="geometry">
            <mxPoint x="590" y="2970" as="sourcePoint" />
            <mxPoint x="680" y="2900" as="targetPoint" />
            <Array as="points" />
          </mxGeometry>
        </mxCell>
        <mxCell id="Qb5Y88_ZjMLcsn727JRo-33" value="" style="endArrow=classic;html=1;rounded=0;entryX=0;entryY=0.5;entryDx=0;entryDy=0;exitX=1;exitY=0.5;exitDx=0;exitDy=0;" parent="1" source="awH0RjOHOl6KBhXupfIw-2" target="Qb5Y88_ZjMLcsn727JRo-30" edge="1">
          <mxGeometry width="50" height="50" relative="1" as="geometry">
            <mxPoint x="580" y="2950" as="sourcePoint" />
            <mxPoint x="630" y="2900" as="targetPoint" />
            <Array as="points">
              <mxPoint x="580" y="2900" />
            </Array>
          </mxGeometry>
        </mxCell>
        <mxCell id="Qb5Y88_ZjMLcsn727JRo-36" value="" style="endArrow=classic;html=1;rounded=0;entryX=0;entryY=0.5;entryDx=0;entryDy=0;exitX=1;exitY=0.5;exitDx=0;exitDy=0;" parent="1" source="awH0RjOHOl6KBhXupfIw-73" target="awH0RjOHOl6KBhXupfIw-85" edge="1">
          <mxGeometry width="50" height="50" relative="1" as="geometry">
            <mxPoint x="940" y="2870" as="sourcePoint" />
            <mxPoint x="990" y="2820" as="targetPoint" />
          </mxGeometry>
        </mxCell>
        <mxCell id="Qb5Y88_ZjMLcsn727JRo-37" value="" style="endArrow=classic;html=1;rounded=0;entryX=0;entryY=0.5;entryDx=0;entryDy=0;exitX=1;exitY=0.5;exitDx=0;exitDy=0;" parent="1" source="awH0RjOHOl6KBhXupfIw-74" target="awH0RjOHOl6KBhXupfIw-86" edge="1">
          <mxGeometry width="50" height="50" relative="1" as="geometry">
            <mxPoint x="920" y="2960" as="sourcePoint" />
            <mxPoint x="970" y="2910" as="targetPoint" />
          </mxGeometry>
        </mxCell>
        <mxCell id="Qb5Y88_ZjMLcsn727JRo-38" value="" style="endArrow=classic;html=1;rounded=0;entryX=0;entryY=0.5;entryDx=0;entryDy=0;exitX=1;exitY=0.5;exitDx=0;exitDy=0;" parent="1" source="awH0RjOHOl6KBhXupfIw-85" target="awH0RjOHOl6KBhXupfIw-15" edge="1">
          <mxGeometry width="50" height="50" relative="1" as="geometry">
            <mxPoint x="1290" y="2870" as="sourcePoint" />
            <mxPoint x="1340" y="2820" as="targetPoint" />
          </mxGeometry>
        </mxCell>
        <mxCell id="Qb5Y88_ZjMLcsn727JRo-39" value="" style="endArrow=classic;html=1;rounded=0;entryX=0;entryY=0.5;entryDx=0;entryDy=0;exitX=1;exitY=0.5;exitDx=0;exitDy=0;" parent="1" source="awH0RjOHOl6KBhXupfIw-86" target="awH0RjOHOl6KBhXupfIw-27" edge="1">
          <mxGeometry width="50" height="50" relative="1" as="geometry">
            <mxPoint x="1320" y="2930" as="sourcePoint" />
            <mxPoint x="1370" y="2880" as="targetPoint" />
          </mxGeometry>
        </mxCell>
        <mxCell id="Qb5Y88_ZjMLcsn727JRo-40" value="" style="endArrow=classic;html=1;rounded=0;exitX=1;exitY=0.5;exitDx=0;exitDy=0;" parent="1" source="awH0RjOHOl6KBhXupfIw-90" edge="1">
          <mxGeometry width="50" height="50" relative="1" as="geometry">
            <mxPoint x="1350" y="3040" as="sourcePoint" />
            <mxPoint x="1440" y="3020" as="targetPoint" />
          </mxGeometry>
        </mxCell>
        <mxCell id="Qb5Y88_ZjMLcsn727JRo-41" value="" style="endArrow=classic;html=1;rounded=0;exitX=1;exitY=0.5;exitDx=0;exitDy=0;" parent="1" source="awH0RjOHOl6KBhXupfIw-91" edge="1">
          <mxGeometry width="50" height="50" relative="1" as="geometry">
            <mxPoint x="1270" y="3090" as="sourcePoint" />
            <mxPoint x="1440" y="3060" as="targetPoint" />
          </mxGeometry>
        </mxCell>
        <mxCell id="Qb5Y88_ZjMLcsn727JRo-42" value="" style="endArrow=classic;html=1;rounded=0;exitX=0;exitY=0.5;exitDx=0;exitDy=0;entryX=1;entryY=0.5;entryDx=0;entryDy=0;" parent="1" source="awH0RjOHOl6KBhXupfIw-38" target="Qb5Y88_ZjMLcsn727JRo-2" edge="1">
          <mxGeometry width="50" height="50" relative="1" as="geometry">
            <mxPoint x="1320" y="3160" as="sourcePoint" />
            <mxPoint x="1370" y="3110" as="targetPoint" />
          </mxGeometry>
        </mxCell>
        <mxCell id="Qb5Y88_ZjMLcsn727JRo-43" value="" style="endArrow=classic;html=1;rounded=0;exitX=0;exitY=0.5;exitDx=0;exitDy=0;entryX=1;entryY=0.5;entryDx=0;entryDy=0;" parent="1" source="awH0RjOHOl6KBhXupfIw-37" target="Qb5Y88_ZjMLcsn727JRo-3" edge="1">
          <mxGeometry width="50" height="50" relative="1" as="geometry">
            <mxPoint x="1300" y="3200" as="sourcePoint" />
            <mxPoint x="1350" y="3150" as="targetPoint" />
          </mxGeometry>
        </mxCell>
        <mxCell id="Qb5Y88_ZjMLcsn727JRo-44" value="" style="endArrow=classic;html=1;rounded=0;exitX=0;exitY=0.5;exitDx=0;exitDy=0;entryX=1;entryY=0.5;entryDx=0;entryDy=0;" parent="1" source="awH0RjOHOl6KBhXupfIw-36" target="Qb5Y88_ZjMLcsn727JRo-5" edge="1">
          <mxGeometry width="50" height="50" relative="1" as="geometry">
            <mxPoint x="1300" y="3190" as="sourcePoint" />
            <mxPoint x="1350" y="3140" as="targetPoint" />
          </mxGeometry>
        </mxCell>
        <mxCell id="Qb5Y88_ZjMLcsn727JRo-45" value="" style="endArrow=classic;html=1;rounded=0;exitX=0;exitY=0.5;exitDx=0;exitDy=0;entryX=1;entryY=0.5;entryDx=0;entryDy=0;" parent="1" source="awH0RjOHOl6KBhXupfIw-33" target="Qb5Y88_ZjMLcsn727JRo-4" edge="1">
          <mxGeometry width="50" height="50" relative="1" as="geometry">
            <mxPoint x="1370" y="3220" as="sourcePoint" />
            <mxPoint x="1360" y="3130" as="targetPoint" />
          </mxGeometry>
        </mxCell>
        <mxCell id="Qb5Y88_ZjMLcsn727JRo-46" value="" style="endArrow=classic;html=1;rounded=0;exitX=0;exitY=0.5;exitDx=0;exitDy=0;entryX=1;entryY=0.5;entryDx=0;entryDy=0;" parent="1" source="awH0RjOHOl6KBhXupfIw-35" target="Qb5Y88_ZjMLcsn727JRo-19" edge="1">
          <mxGeometry width="50" height="50" relative="1" as="geometry">
            <mxPoint x="1350" y="3170" as="sourcePoint" />
            <mxPoint x="1400" y="3120" as="targetPoint" />
          </mxGeometry>
        </mxCell>
        <mxCell id="Qb5Y88_ZjMLcsn727JRo-47" value="" style="endArrow=classic;html=1;rounded=0;exitX=0;exitY=0.5;exitDx=0;exitDy=0;entryX=1;entryY=0.5;entryDx=0;entryDy=0;" parent="1" source="awH0RjOHOl6KBhXupfIw-32" target="Qb5Y88_ZjMLcsn727JRo-17" edge="1">
          <mxGeometry width="50" height="50" relative="1" as="geometry">
            <mxPoint x="1290" y="3140" as="sourcePoint" />
            <mxPoint x="1340" y="3090" as="targetPoint" />
          </mxGeometry>
        </mxCell>
        <mxCell id="Qb5Y88_ZjMLcsn727JRo-48" value="comb" style="rounded=0;whiteSpace=wrap;html=1;fillColor=#ffe6cc;strokeColor=#d79b00;" parent="1" vertex="1">
          <mxGeometry x="940" y="3120" width="40" height="240" as="geometry" />
        </mxCell>
        <mxCell id="Qb5Y88_ZjMLcsn727JRo-49" value="" style="shape=flexArrow;endArrow=classic;html=1;rounded=0;exitX=0;exitY=0;exitDx=0;exitDy=0;fillColor=#ffe6cc;strokeColor=#d79b00;" parent="1" source="Qb5Y88_ZjMLcsn727JRo-5" edge="1">
          <mxGeometry width="50" height="50" relative="1" as="geometry">
            <mxPoint x="840" y="3280" as="sourcePoint" />
            <mxPoint x="980" y="3240" as="targetPoint" />
          </mxGeometry>
        </mxCell>
        <mxCell id="Qb5Y88_ZjMLcsn727JRo-50" value="" style="endArrow=classic;html=1;rounded=0;entryX=1;entryY=0.5;entryDx=0;entryDy=0;exitX=0;exitY=0.25;exitDx=0;exitDy=0;" parent="1" source="Qb5Y88_ZjMLcsn727JRo-48" target="awH0RjOHOl6KBhXupfIw-77" edge="1">
          <mxGeometry width="50" height="50" relative="1" as="geometry">
            <mxPoint x="840" y="3290" as="sourcePoint" />
            <mxPoint x="920" y="3130" as="targetPoint" />
            <Array as="points">
              <mxPoint x="920" y="3180" />
              <mxPoint x="920" y="3100" />
            </Array>
          </mxGeometry>
        </mxCell>
        <mxCell id="Qb5Y88_ZjMLcsn727JRo-51" value="" style="endArrow=classic;html=1;rounded=0;entryX=1;entryY=0.5;entryDx=0;entryDy=0;exitX=0;exitY=0.5;exitDx=0;exitDy=0;" parent="1" source="Qb5Y88_ZjMLcsn727JRo-48" target="awH0RjOHOl6KBhXupfIw-75" edge="1">
          <mxGeometry width="50" height="50" relative="1" as="geometry">
            <mxPoint x="860" y="3310" as="sourcePoint" />
            <mxPoint x="880" y="3150" as="targetPoint" />
            <Array as="points">
              <mxPoint x="900" y="3240" />
              <mxPoint x="900" y="3140" />
            </Array>
          </mxGeometry>
        </mxCell>
        <mxCell id="ixcqM8Q6MJVuqp_zl_lO-2" value="" style="endArrow=classic;html=1;rounded=0;exitX=1;exitY=0.5;exitDx=0;exitDy=0;entryX=-0.008;entryY=0.836;entryDx=0;entryDy=0;entryPerimeter=0;" parent="1" source="awH0RjOHOl6KBhXupfIw-4" target="Qb5Y88_ZjMLcsn727JRo-30" edge="1">
          <mxGeometry width="50" height="50" relative="1" as="geometry">
            <mxPoint x="640" y="2980" as="sourcePoint" />
            <mxPoint x="690" y="2930" as="targetPoint" />
          </mxGeometry>
        </mxCell>
        <mxCell id="ixcqM8Q6MJVuqp_zl_lO-3" value="paddr" style="rounded=0;whiteSpace=wrap;html=1;fillColor=#d80073;fontColor=#ffffff;strokeColor=#A50040;" parent="1" vertex="1">
          <mxGeometry x="680" y="2960" width="200" height="40" as="geometry" />
        </mxCell>
        <mxCell id="ixcqM8Q6MJVuqp_zl_lO-4" value="psel" style="rounded=0;whiteSpace=wrap;html=1;fillColor=#60a917;fontColor=#ffffff;strokeColor=#2D7600;" parent="1" vertex="1">
          <mxGeometry x="680" y="2920" width="200" height="40" as="geometry" />
        </mxCell>
        <mxCell id="ixcqM8Q6MJVuqp_zl_lO-9" value="pwdata" style="rounded=0;whiteSpace=wrap;html=1;fillColor=#60a917;fontColor=#ffffff;strokeColor=#2D7600;" parent="1" vertex="1">
          <mxGeometry x="680" y="3000" width="200" height="40" as="geometry" />
        </mxCell>
        <mxCell id="ixcqM8Q6MJVuqp_zl_lO-10" value="data này bao gồm: paddr, psel hoặc&lt;br&gt;pwdata, psel" style="shape=callout;whiteSpace=wrap;html=1;perimeter=calloutPerimeter;" parent="1" vertex="1">
          <mxGeometry x="1440" y="2710" width="200" height="90" as="geometry" />
        </mxCell>
        <mxCell id="ixcqM8Q6MJVuqp_zl_lO-11" value="comb" style="rounded=0;whiteSpace=wrap;html=1;" parent="1" vertex="1">
          <mxGeometry x="1280" y="2760" width="80" height="40" as="geometry" />
        </mxCell>
        <mxCell id="ixcqM8Q6MJVuqp_zl_lO-12" value="" style="endArrow=classic;html=1;rounded=0;entryX=0;entryY=0.5;entryDx=0;entryDy=0;exitX=1;exitY=0.5;exitDx=0;exitDy=0;" parent="1" source="ixcqM8Q6MJVuqp_zl_lO-11" target="awH0RjOHOl6KBhXupfIw-94" edge="1">
          <mxGeometry width="50" height="50" relative="1" as="geometry">
            <mxPoint x="1350" y="2820" as="sourcePoint" />
            <mxPoint x="1400" y="2770" as="targetPoint" />
            <Array as="points">
              <mxPoint x="1400" y="2780" />
              <mxPoint x="1400" y="2820" />
            </Array>
          </mxGeometry>
        </mxCell>
        <mxCell id="ixcqM8Q6MJVuqp_zl_lO-13" value="" style="endArrow=classic;html=1;rounded=0;entryX=0;entryY=0;entryDx=0;entryDy=0;exitX=1;exitY=0.5;exitDx=0;exitDy=0;" parent="1" source="ixcqM8Q6MJVuqp_zl_lO-4" target="ixcqM8Q6MJVuqp_zl_lO-11" edge="1">
          <mxGeometry width="50" height="50" relative="1" as="geometry">
            <mxPoint x="920" y="2940" as="sourcePoint" />
            <mxPoint x="950" y="2790" as="targetPoint" />
            <Array as="points">
              <mxPoint x="920" y="2940" />
              <mxPoint x="920" y="2760" />
            </Array>
          </mxGeometry>
        </mxCell>
        <mxCell id="ixcqM8Q6MJVuqp_zl_lO-14" value="" style="endArrow=classic;html=1;rounded=0;entryX=0;entryY=0.5;entryDx=0;entryDy=0;exitX=1;exitY=0.5;exitDx=0;exitDy=0;" parent="1" source="ixcqM8Q6MJVuqp_zl_lO-3" target="ixcqM8Q6MJVuqp_zl_lO-11" edge="1">
          <mxGeometry width="50" height="50" relative="1" as="geometry">
            <mxPoint x="940" y="2980" as="sourcePoint" />
            <mxPoint x="1040" y="2830" as="targetPoint" />
            <Array as="points">
              <mxPoint x="940" y="2980" />
              <mxPoint x="940" y="2780" />
            </Array>
          </mxGeometry>
        </mxCell>
        <mxCell id="ixcqM8Q6MJVuqp_zl_lO-15" value="" style="endArrow=classic;html=1;rounded=0;exitX=1;exitY=0.5;exitDx=0;exitDy=0;entryX=0;entryY=1;entryDx=0;entryDy=0;" parent="1" source="ixcqM8Q6MJVuqp_zl_lO-9" target="ixcqM8Q6MJVuqp_zl_lO-11" edge="1">
          <mxGeometry width="50" height="50" relative="1" as="geometry">
            <mxPoint x="960" y="2990" as="sourcePoint" />
            <mxPoint x="1010" y="2940" as="targetPoint" />
            <Array as="points">
              <mxPoint x="960" y="3020" />
              <mxPoint x="960" y="2800" />
            </Array>
          </mxGeometry>
        </mxCell>
        <mxCell id="ixcqM8Q6MJVuqp_zl_lO-16" value="" style="endArrow=classic;html=1;rounded=0;exitX=1;exitY=0.5;exitDx=0;exitDy=0;" parent="1" source="awH0RjOHOl6KBhXupfIw-76" edge="1">
          <mxGeometry width="50" height="50" relative="1" as="geometry">
            <mxPoint x="950" y="3060" as="sourcePoint" />
            <mxPoint x="960" y="3020" as="targetPoint" />
            <Array as="points">
              <mxPoint x="960" y="3060" />
            </Array>
          </mxGeometry>
        </mxCell>
      </root>
    </mxGraphModel>
  </diagram>
  <diagram id="EAt0iSV5je6QMiK805Tu" name="wb_apb_async_two_ip">
    <mxGraphModel dx="662" dy="426" grid="1" gridSize="10" guides="1" tooltips="1" connect="1" arrows="1" fold="1" page="1" pageScale="1" pageWidth="9300" pageHeight="9981" math="0" shadow="0">
      <root>
        <mxCell id="0" />
        <mxCell id="1" parent="0" />
        <mxCell id="Y7VnT5ct_uXKaZMZFbvE-1" value="upstream device" style="rounded=0;whiteSpace=wrap;html=1;" parent="1" vertex="1">
          <mxGeometry x="200" y="160" width="80" height="120" as="geometry" />
        </mxCell>
        <mxCell id="Y7VnT5ct_uXKaZMZFbvE-3" value="wishbone slave port" style="rounded=0;whiteSpace=wrap;html=1;fillColor=#d80073;fontColor=#ffffff;strokeColor=#A50040;" parent="1" vertex="1">
          <mxGeometry x="360" y="160" width="80" height="120" as="geometry" />
        </mxCell>
        <mxCell id="Y7VnT5ct_uXKaZMZFbvE-4" value="apb master" style="rounded=0;whiteSpace=wrap;html=1;fillColor=#d80073;fontColor=#ffffff;strokeColor=#A50040;" parent="1" vertex="1">
          <mxGeometry x="520" y="160" width="80" height="120" as="geometry" />
        </mxCell>
        <mxCell id="Y7VnT5ct_uXKaZMZFbvE-6" value="hand sharking" style="text;html=1;strokeColor=none;fillColor=none;align=center;verticalAlign=middle;whiteSpace=wrap;rounded=0;" parent="1" vertex="1">
          <mxGeometry x="450" y="130" width="60" height="30" as="geometry" />
        </mxCell>
        <mxCell id="9e8HwCSHTnBgVCgv-gLR-2" value="apb slave &lt;br&gt;port" style="rounded=0;whiteSpace=wrap;html=1;fillColor=#dae8fc;strokeColor=#6c8ebf;" parent="1" vertex="1">
          <mxGeometry x="680" y="160" width="80" height="120" as="geometry" />
        </mxCell>
        <mxCell id="3Lmt03Vu2N19EgIGZlxW-2" value="Register &lt;br&gt;block" style="rounded=0;whiteSpace=wrap;html=1;fillColor=#d80073;fontColor=#ffffff;strokeColor=#A50040;" parent="1" vertex="1">
          <mxGeometry x="840" y="120" width="80" height="200" as="geometry" />
        </mxCell>
        <mxCell id="IHRm9ZoPT4bJVFu8FZbC-1" value="" style="endArrow=classic;html=1;rounded=0;entryX=0;entryY=0.5;entryDx=0;entryDy=0;exitX=1;exitY=0;exitDx=0;exitDy=0;" parent="1" source="3Lmt03Vu2N19EgIGZlxW-2" target="IHRm9ZoPT4bJVFu8FZbC-2" edge="1">
          <mxGeometry width="50" height="50" relative="1" as="geometry">
            <mxPoint x="920" y="200" as="sourcePoint" />
            <mxPoint x="1000" y="200" as="targetPoint" />
          </mxGeometry>
        </mxCell>
        <mxCell id="IHRm9ZoPT4bJVFu8FZbC-2" value="afifo&lt;br&gt;tx" style="rounded=0;whiteSpace=wrap;html=1;fillColor=#f8cecc;strokeColor=#b85450;" parent="1" vertex="1">
          <mxGeometry x="1000" y="80" width="80" height="80" as="geometry" />
        </mxCell>
        <mxCell id="_6bDi6tm3dHTMXA4kPY0-1" value="afifo&lt;br&gt;rx" style="rounded=0;whiteSpace=wrap;html=1;fillColor=#f8cecc;strokeColor=#b85450;" parent="1" vertex="1">
          <mxGeometry x="1000" y="280" width="80" height="80" as="geometry" />
        </mxCell>
        <mxCell id="_6bDi6tm3dHTMXA4kPY0-2" value="" style="endArrow=classic;html=1;rounded=0;exitX=0;exitY=0.5;exitDx=0;exitDy=0;entryX=1;entryY=1;entryDx=0;entryDy=0;" parent="1" source="_6bDi6tm3dHTMXA4kPY0-1" target="3Lmt03Vu2N19EgIGZlxW-2" edge="1">
          <mxGeometry width="50" height="50" relative="1" as="geometry">
            <mxPoint x="880" y="420" as="sourcePoint" />
            <mxPoint x="930" y="370" as="targetPoint" />
          </mxGeometry>
        </mxCell>
        <mxCell id="_6bDi6tm3dHTMXA4kPY0-3" value="" style="endArrow=classic;html=1;rounded=0;exitX=1;exitY=0.5;exitDx=0;exitDy=0;entryX=0;entryY=0.5;entryDx=0;entryDy=0;" parent="1" source="IHRm9ZoPT4bJVFu8FZbC-2" target="_6bDi6tm3dHTMXA4kPY0-5" edge="1">
          <mxGeometry width="50" height="50" relative="1" as="geometry">
            <mxPoint x="1160" y="200" as="sourcePoint" />
            <mxPoint x="1240" y="280" as="targetPoint" />
            <Array as="points">
              <mxPoint x="1120" y="120" />
              <mxPoint x="1200" y="320" />
            </Array>
          </mxGeometry>
        </mxCell>
        <mxCell id="_6bDi6tm3dHTMXA4kPY0-5" value="afifo&lt;br&gt;rx" style="rounded=0;whiteSpace=wrap;html=1;fillColor=#f8cecc;strokeColor=#b85450;" parent="1" vertex="1">
          <mxGeometry x="1240" y="280" width="80" height="80" as="geometry" />
        </mxCell>
        <mxCell id="_6bDi6tm3dHTMXA4kPY0-6" value="afifo&lt;br&gt;tx" style="rounded=0;whiteSpace=wrap;html=1;fillColor=#f8cecc;strokeColor=#b85450;" parent="1" vertex="1">
          <mxGeometry x="1240" y="80" width="80" height="80" as="geometry" />
        </mxCell>
        <mxCell id="_6bDi6tm3dHTMXA4kPY0-8" value="" style="endArrow=classic;html=1;rounded=0;exitX=1;exitY=0.5;exitDx=0;exitDy=0;entryX=0;entryY=1;entryDx=0;entryDy=0;" parent="1" source="_6bDi6tm3dHTMXA4kPY0-5" target="_6bDi6tm3dHTMXA4kPY0-9" edge="1">
          <mxGeometry width="50" height="50" relative="1" as="geometry">
            <mxPoint x="1450" y="280" as="sourcePoint" />
            <mxPoint x="1400" y="280" as="targetPoint" />
          </mxGeometry>
        </mxCell>
        <mxCell id="_6bDi6tm3dHTMXA4kPY0-9" value="Register &lt;br&gt;block" style="rounded=0;whiteSpace=wrap;html=1;fillColor=#d80073;fontColor=#ffffff;strokeColor=#A50040;" parent="1" vertex="1">
          <mxGeometry x="1400" y="120" width="80" height="200" as="geometry" />
        </mxCell>
        <mxCell id="QIFhcmXKsYI4nHNbkjdm-1" value="" style="endArrow=classic;startArrow=classic;html=1;rounded=0;exitX=1;exitY=0.5;exitDx=0;exitDy=0;entryX=0;entryY=0.5;entryDx=0;entryDy=0;" parent="1" source="Y7VnT5ct_uXKaZMZFbvE-1" target="Y7VnT5ct_uXKaZMZFbvE-3" edge="1">
          <mxGeometry width="50" height="50" relative="1" as="geometry">
            <mxPoint x="300" y="250" as="sourcePoint" />
            <mxPoint x="350" y="200" as="targetPoint" />
          </mxGeometry>
        </mxCell>
        <mxCell id="QIFhcmXKsYI4nHNbkjdm-2" value="" style="endArrow=classic;startArrow=classic;html=1;rounded=0;entryX=0;entryY=0.5;entryDx=0;entryDy=0;exitX=1;exitY=0.5;exitDx=0;exitDy=0;" parent="1" source="Y7VnT5ct_uXKaZMZFbvE-3" target="Y7VnT5ct_uXKaZMZFbvE-4" edge="1">
          <mxGeometry width="50" height="50" relative="1" as="geometry">
            <mxPoint x="460" y="250" as="sourcePoint" />
            <mxPoint x="510" y="200" as="targetPoint" />
          </mxGeometry>
        </mxCell>
        <mxCell id="QIFhcmXKsYI4nHNbkjdm-3" value="" style="endArrow=classic;startArrow=classic;html=1;rounded=0;exitX=1;exitY=0.5;exitDx=0;exitDy=0;entryX=0;entryY=0.5;entryDx=0;entryDy=0;" parent="1" source="Y7VnT5ct_uXKaZMZFbvE-4" target="9e8HwCSHTnBgVCgv-gLR-2" edge="1">
          <mxGeometry width="50" height="50" relative="1" as="geometry">
            <mxPoint x="660" y="240" as="sourcePoint" />
            <mxPoint x="710" y="190" as="targetPoint" />
          </mxGeometry>
        </mxCell>
        <mxCell id="QIFhcmXKsYI4nHNbkjdm-4" value="" style="endArrow=classic;startArrow=classic;html=1;rounded=0;entryX=0;entryY=0.5;entryDx=0;entryDy=0;exitX=1;exitY=0.5;exitDx=0;exitDy=0;" parent="1" source="9e8HwCSHTnBgVCgv-gLR-2" target="3Lmt03Vu2N19EgIGZlxW-2" edge="1">
          <mxGeometry width="50" height="50" relative="1" as="geometry">
            <mxPoint x="790" y="270" as="sourcePoint" />
            <mxPoint x="830" y="230" as="targetPoint" />
          </mxGeometry>
        </mxCell>
        <mxCell id="SBlXS6sqibtNwPLRIstz-1" value="" style="endArrow=classic;html=1;rounded=0;entryX=1;entryY=0.5;entryDx=0;entryDy=0;exitX=0;exitY=0.5;exitDx=0;exitDy=0;" parent="1" source="_6bDi6tm3dHTMXA4kPY0-6" target="_6bDi6tm3dHTMXA4kPY0-1" edge="1">
          <mxGeometry width="50" height="50" relative="1" as="geometry">
            <mxPoint x="1080" y="580" as="sourcePoint" />
            <mxPoint x="1090" y="350" as="targetPoint" />
            <Array as="points">
              <mxPoint x="1200" y="120" />
              <mxPoint x="1120" y="320" />
            </Array>
          </mxGeometry>
        </mxCell>
        <mxCell id="SBlXS6sqibtNwPLRIstz-2" value="" style="endArrow=classic;html=1;rounded=0;exitX=0;exitY=0;exitDx=0;exitDy=0;entryX=1;entryY=0.5;entryDx=0;entryDy=0;" parent="1" source="_6bDi6tm3dHTMXA4kPY0-9" target="_6bDi6tm3dHTMXA4kPY0-6" edge="1">
          <mxGeometry width="50" height="50" relative="1" as="geometry">
            <mxPoint x="1320" y="240" as="sourcePoint" />
            <mxPoint x="1370" y="190" as="targetPoint" />
          </mxGeometry>
        </mxCell>
        <mxCell id="SBlXS6sqibtNwPLRIstz-3" value="" style="endArrow=classic;startArrow=classic;html=1;rounded=0;exitX=1;exitY=0.5;exitDx=0;exitDy=0;entryX=0;entryY=0.5;entryDx=0;entryDy=0;" parent="1" source="_6bDi6tm3dHTMXA4kPY0-9" target="RyMYiu1btGfCLM7U9NNV-1" edge="1">
          <mxGeometry width="50" height="50" relative="1" as="geometry">
            <mxPoint x="1590" y="200" as="sourcePoint" />
            <mxPoint x="1560" y="240" as="targetPoint" />
          </mxGeometry>
        </mxCell>
        <mxCell id="RyMYiu1btGfCLM7U9NNV-1" value="apb port&lt;br&gt;slave" style="rounded=0;whiteSpace=wrap;html=1;fillColor=#dae8fc;strokeColor=#6c8ebf;" parent="1" vertex="1">
          <mxGeometry x="1560" y="160" width="80" height="120" as="geometry" />
        </mxCell>
        <mxCell id="F6zVHMBG30aNCmedg7Sj-1" value="" style="endArrow=classic;startArrow=classic;html=1;rounded=0;exitX=1;exitY=0.5;exitDx=0;exitDy=0;" parent="1" source="RyMYiu1btGfCLM7U9NNV-1" edge="1">
          <mxGeometry width="50" height="50" relative="1" as="geometry">
            <mxPoint x="1680" y="160" as="sourcePoint" />
            <mxPoint x="1720" y="220" as="targetPoint" />
          </mxGeometry>
        </mxCell>
        <mxCell id="tsg7_kopH7Jt8qJfPyc8-1" value="IP1: clock domain 1" style="swimlane;whiteSpace=wrap;html=1;startSize=40;" parent="1" vertex="1">
          <mxGeometry x="660" width="440" height="400" as="geometry" />
        </mxCell>
        <mxCell id="tsg7_kopH7Jt8qJfPyc8-2" value="IP2: clock domain 2" style="swimlane;whiteSpace=wrap;html=1;startSize=40;" parent="1" vertex="1">
          <mxGeometry x="1220" width="460" height="400" as="geometry" />
        </mxCell>
        <mxCell id="tsg7_kopH7Jt8qJfPyc8-3" value="Wishbone to APB bridge" style="swimlane;whiteSpace=wrap;html=1;startSize=40;" parent="1" vertex="1">
          <mxGeometry x="320" width="300" height="400" as="geometry" />
        </mxCell>
        <mxCell id="tsg7_kopH7Jt8qJfPyc8-5" value="clock&lt;br&gt;domain 3" style="rounded=0;whiteSpace=wrap;html=1;" parent="1" vertex="1">
          <mxGeometry x="1120" width="80" height="40" as="geometry" />
        </mxCell>
        <mxCell id="tsg7_kopH7Jt8qJfPyc8-6" value="other device" style="rounded=0;whiteSpace=wrap;html=1;" parent="1" vertex="1">
          <mxGeometry x="1720" y="160" width="80" height="120" as="geometry" />
        </mxCell>
        <mxCell id="ItZJ6sBs6iK6BrgpMzSw-1" value="Wishbone slave&lt;br&gt;interface" style="rounded=1;whiteSpace=wrap;html=1;" parent="1" vertex="1">
          <mxGeometry x="320" y="560" width="120" height="520" as="geometry" />
        </mxCell>
        <mxCell id="ItZJ6sBs6iK6BrgpMzSw-2" value="" style="endArrow=classic;html=1;rounded=0;entryX=0;entryY=0;entryDx=0;entryDy=0;" parent="1" target="ItZJ6sBs6iK6BrgpMzSw-1" edge="1">
          <mxGeometry width="50" height="50" relative="1" as="geometry">
            <mxPoint x="200" y="560" as="sourcePoint" />
            <mxPoint x="280" y="630" as="targetPoint" />
          </mxGeometry>
        </mxCell>
        <mxCell id="ItZJ6sBs6iK6BrgpMzSw-3" value="cti" style="text;html=1;strokeColor=none;fillColor=none;align=center;verticalAlign=middle;whiteSpace=wrap;rounded=0;" parent="1" vertex="1">
          <mxGeometry x="140" y="550" width="60" height="20" as="geometry" />
        </mxCell>
        <mxCell id="ItZJ6sBs6iK6BrgpMzSw-4" value="" style="endArrow=classic;html=1;rounded=0;" parent="1" edge="1">
          <mxGeometry width="50" height="50" relative="1" as="geometry">
            <mxPoint x="200" y="600" as="sourcePoint" />
            <mxPoint x="320" y="600" as="targetPoint" />
          </mxGeometry>
        </mxCell>
        <mxCell id="ItZJ6sBs6iK6BrgpMzSw-5" value="bte" style="text;html=1;strokeColor=none;fillColor=none;align=center;verticalAlign=middle;whiteSpace=wrap;rounded=0;" parent="1" vertex="1">
          <mxGeometry x="140" y="590" width="60" height="20" as="geometry" />
        </mxCell>
        <mxCell id="ItZJ6sBs6iK6BrgpMzSw-6" value="" style="endArrow=classic;html=1;rounded=0;" parent="1" edge="1">
          <mxGeometry width="50" height="50" relative="1" as="geometry">
            <mxPoint x="200" y="640" as="sourcePoint" />
            <mxPoint x="320" y="640" as="targetPoint" />
          </mxGeometry>
        </mxCell>
        <mxCell id="ItZJ6sBs6iK6BrgpMzSw-7" value="we" style="text;html=1;strokeColor=none;fillColor=none;align=center;verticalAlign=middle;whiteSpace=wrap;rounded=0;" parent="1" vertex="1">
          <mxGeometry x="140" y="630" width="60" height="20" as="geometry" />
        </mxCell>
        <mxCell id="ItZJ6sBs6iK6BrgpMzSw-8" value="" style="endArrow=classic;html=1;rounded=0;" parent="1" edge="1">
          <mxGeometry width="50" height="50" relative="1" as="geometry">
            <mxPoint x="200" y="680" as="sourcePoint" />
            <mxPoint x="320" y="680" as="targetPoint" />
          </mxGeometry>
        </mxCell>
        <mxCell id="ItZJ6sBs6iK6BrgpMzSw-10" value="sel" style="text;html=1;strokeColor=none;fillColor=none;align=center;verticalAlign=middle;whiteSpace=wrap;rounded=0;" parent="1" vertex="1">
          <mxGeometry x="140" y="670" width="60" height="20" as="geometry" />
        </mxCell>
        <mxCell id="ItZJ6sBs6iK6BrgpMzSw-11" value="" style="endArrow=classic;html=1;rounded=0;" parent="1" edge="1">
          <mxGeometry width="50" height="50" relative="1" as="geometry">
            <mxPoint x="200" y="720" as="sourcePoint" />
            <mxPoint x="320" y="720" as="targetPoint" />
          </mxGeometry>
        </mxCell>
        <mxCell id="ItZJ6sBs6iK6BrgpMzSw-12" value="" style="endArrow=classic;html=1;rounded=0;entryX=-0.006;entryY=0.46;entryDx=0;entryDy=0;entryPerimeter=0;" parent="1" target="ItZJ6sBs6iK6BrgpMzSw-1" edge="1">
          <mxGeometry width="50" height="50" relative="1" as="geometry">
            <mxPoint x="200" y="800" as="sourcePoint" />
            <mxPoint x="310" y="710" as="targetPoint" />
          </mxGeometry>
        </mxCell>
        <mxCell id="ItZJ6sBs6iK6BrgpMzSw-13" value="" style="endArrow=classic;html=1;rounded=0;" parent="1" edge="1">
          <mxGeometry width="50" height="50" relative="1" as="geometry">
            <mxPoint x="200" y="760" as="sourcePoint" />
            <mxPoint x="320" y="760" as="targetPoint" />
          </mxGeometry>
        </mxCell>
        <mxCell id="ItZJ6sBs6iK6BrgpMzSw-14" value="" style="endArrow=classic;html=1;rounded=0;exitX=0;exitY=1;exitDx=0;exitDy=0;" parent="1" source="ItZJ6sBs6iK6BrgpMzSw-1" edge="1">
          <mxGeometry width="50" height="50" relative="1" as="geometry">
            <mxPoint x="90" y="920" as="sourcePoint" />
            <mxPoint x="200" y="1080" as="targetPoint" />
          </mxGeometry>
        </mxCell>
        <mxCell id="ItZJ6sBs6iK6BrgpMzSw-15" value="rty_o" style="text;html=1;strokeColor=none;fillColor=none;align=center;verticalAlign=middle;whiteSpace=wrap;rounded=0;" parent="1" vertex="1">
          <mxGeometry x="140" y="1070" width="60" height="20" as="geometry" />
        </mxCell>
        <mxCell id="ItZJ6sBs6iK6BrgpMzSw-16" value="" style="endArrow=classic;html=1;rounded=0;exitX=-0.002;exitY=0.923;exitDx=0;exitDy=0;exitPerimeter=0;" parent="1" source="ItZJ6sBs6iK6BrgpMzSw-1" edge="1">
          <mxGeometry width="50" height="50" relative="1" as="geometry">
            <mxPoint x="130" y="980" as="sourcePoint" />
            <mxPoint x="200" y="1040" as="targetPoint" />
          </mxGeometry>
        </mxCell>
        <mxCell id="ItZJ6sBs6iK6BrgpMzSw-17" value="err_o" style="text;html=1;strokeColor=none;fillColor=none;align=center;verticalAlign=middle;whiteSpace=wrap;rounded=0;" parent="1" vertex="1">
          <mxGeometry x="140" y="1030" width="60" height="20" as="geometry" />
        </mxCell>
        <mxCell id="ItZJ6sBs6iK6BrgpMzSw-18" value="" style="endArrow=classic;html=1;rounded=0;" parent="1" edge="1">
          <mxGeometry width="50" height="50" relative="1" as="geometry">
            <mxPoint x="320" y="960" as="sourcePoint" />
            <mxPoint x="200" y="960" as="targetPoint" />
          </mxGeometry>
        </mxCell>
        <mxCell id="ItZJ6sBs6iK6BrgpMzSw-19" value="ack_o" style="text;html=1;strokeColor=none;fillColor=none;align=center;verticalAlign=middle;whiteSpace=wrap;rounded=0;" parent="1" vertex="1">
          <mxGeometry x="140" y="990" width="60" height="20" as="geometry" />
        </mxCell>
        <mxCell id="ItZJ6sBs6iK6BrgpMzSw-20" value="" style="endArrow=classic;html=1;rounded=0;" parent="1" edge="1">
          <mxGeometry width="50" height="50" relative="1" as="geometry">
            <mxPoint x="320" y="1000" as="sourcePoint" />
            <mxPoint x="200" y="1000" as="targetPoint" />
          </mxGeometry>
        </mxCell>
        <mxCell id="ItZJ6sBs6iK6BrgpMzSw-21" value="dat_o" style="text;html=1;strokeColor=none;fillColor=none;align=center;verticalAlign=middle;whiteSpace=wrap;rounded=0;" parent="1" vertex="1">
          <mxGeometry x="140" y="950" width="60" height="20" as="geometry" />
        </mxCell>
        <mxCell id="ItZJ6sBs6iK6BrgpMzSw-22" value="cyc_i" style="text;html=1;strokeColor=none;fillColor=none;align=center;verticalAlign=middle;whiteSpace=wrap;rounded=0;" parent="1" vertex="1">
          <mxGeometry x="140" y="710" width="60" height="20" as="geometry" />
        </mxCell>
        <mxCell id="ItZJ6sBs6iK6BrgpMzSw-23" value="adr_i" style="text;html=1;strokeColor=none;fillColor=none;align=center;verticalAlign=middle;whiteSpace=wrap;rounded=0;" parent="1" vertex="1">
          <mxGeometry x="140" y="790" width="60" height="20" as="geometry" />
        </mxCell>
        <mxCell id="ItZJ6sBs6iK6BrgpMzSw-24" value="dat_i" style="text;html=1;strokeColor=none;fillColor=none;align=center;verticalAlign=middle;whiteSpace=wrap;rounded=0;" parent="1" vertex="1">
          <mxGeometry x="140" y="750" width="60" height="20" as="geometry" />
        </mxCell>
        <mxCell id="ItZJ6sBs6iK6BrgpMzSw-25" value="apb master &lt;br&gt;interface" style="rounded=1;whiteSpace=wrap;html=1;" parent="1" vertex="1">
          <mxGeometry x="840" y="560" width="120" height="520" as="geometry" />
        </mxCell>
        <mxCell id="ItZJ6sBs6iK6BrgpMzSw-26" value="" style="endArrow=classic;html=1;rounded=0;entryX=1;entryY=0;entryDx=0;entryDy=0;" parent="1" target="ItZJ6sBs6iK6BrgpMzSw-25" edge="1">
          <mxGeometry width="50" height="50" relative="1" as="geometry">
            <mxPoint x="1080" y="560" as="sourcePoint" />
            <mxPoint x="1190" y="570" as="targetPoint" />
          </mxGeometry>
        </mxCell>
        <mxCell id="ItZJ6sBs6iK6BrgpMzSw-27" value="pready" style="text;html=1;strokeColor=none;fillColor=none;align=center;verticalAlign=middle;whiteSpace=wrap;rounded=0;" parent="1" vertex="1">
          <mxGeometry x="1080" y="550" width="60" height="20" as="geometry" />
        </mxCell>
        <mxCell id="ItZJ6sBs6iK6BrgpMzSw-28" value="" style="endArrow=classic;html=1;rounded=0;entryX=1.008;entryY=0.076;entryDx=0;entryDy=0;entryPerimeter=0;" parent="1" target="ItZJ6sBs6iK6BrgpMzSw-25" edge="1">
          <mxGeometry width="50" height="50" relative="1" as="geometry">
            <mxPoint x="1080" y="600" as="sourcePoint" />
            <mxPoint x="1100" y="610" as="targetPoint" />
          </mxGeometry>
        </mxCell>
        <mxCell id="ItZJ6sBs6iK6BrgpMzSw-29" value="pslverr" style="text;html=1;strokeColor=none;fillColor=none;align=center;verticalAlign=middle;whiteSpace=wrap;rounded=0;" parent="1" vertex="1">
          <mxGeometry x="1080" y="590" width="60" height="20" as="geometry" />
        </mxCell>
        <mxCell id="ItZJ6sBs6iK6BrgpMzSw-30" value="" style="endArrow=classic;html=1;rounded=0;entryX=1.009;entryY=0.152;entryDx=0;entryDy=0;entryPerimeter=0;" parent="1" target="ItZJ6sBs6iK6BrgpMzSw-25" edge="1">
          <mxGeometry width="50" height="50" relative="1" as="geometry">
            <mxPoint x="1080" y="640" as="sourcePoint" />
            <mxPoint x="1160" y="650" as="targetPoint" />
          </mxGeometry>
        </mxCell>
        <mxCell id="ItZJ6sBs6iK6BrgpMzSw-31" value="prdata" style="text;html=1;strokeColor=none;fillColor=none;align=center;verticalAlign=middle;whiteSpace=wrap;rounded=0;" parent="1" vertex="1">
          <mxGeometry x="1080" y="630" width="60" height="20" as="geometry" />
        </mxCell>
        <mxCell id="ItZJ6sBs6iK6BrgpMzSw-32" value="" style="endArrow=classic;html=1;rounded=0;exitX=1;exitY=1;exitDx=0;exitDy=0;" parent="1" source="ItZJ6sBs6iK6BrgpMzSw-25" edge="1">
          <mxGeometry width="50" height="50" relative="1" as="geometry">
            <mxPoint x="1030" y="1010" as="sourcePoint" />
            <mxPoint x="1080" y="1080" as="targetPoint" />
          </mxGeometry>
        </mxCell>
        <mxCell id="ItZJ6sBs6iK6BrgpMzSw-33" value="pstrb" style="text;html=1;strokeColor=none;fillColor=none;align=center;verticalAlign=middle;whiteSpace=wrap;rounded=0;" parent="1" vertex="1">
          <mxGeometry x="1080" y="1070" width="60" height="20" as="geometry" />
        </mxCell>
        <mxCell id="ItZJ6sBs6iK6BrgpMzSw-34" value="" style="endArrow=classic;html=1;rounded=0;exitX=1.001;exitY=0.922;exitDx=0;exitDy=0;exitPerimeter=0;" parent="1" source="ItZJ6sBs6iK6BrgpMzSw-25" edge="1">
          <mxGeometry width="50" height="50" relative="1" as="geometry">
            <mxPoint x="990" y="1020" as="sourcePoint" />
            <mxPoint x="1080" y="1040" as="targetPoint" />
          </mxGeometry>
        </mxCell>
        <mxCell id="ItZJ6sBs6iK6BrgpMzSw-35" value="pwdata" style="text;html=1;strokeColor=none;fillColor=none;align=center;verticalAlign=middle;whiteSpace=wrap;rounded=0;" parent="1" vertex="1">
          <mxGeometry x="1080" y="1030" width="60" height="20" as="geometry" />
        </mxCell>
        <mxCell id="ItZJ6sBs6iK6BrgpMzSw-36" value="" style="endArrow=classic;html=1;rounded=0;exitX=0.999;exitY=0.846;exitDx=0;exitDy=0;exitPerimeter=0;" parent="1" source="ItZJ6sBs6iK6BrgpMzSw-25" edge="1">
          <mxGeometry width="50" height="50" relative="1" as="geometry">
            <mxPoint x="980" y="1020" as="sourcePoint" />
            <mxPoint x="1080" y="1000" as="targetPoint" />
          </mxGeometry>
        </mxCell>
        <mxCell id="ItZJ6sBs6iK6BrgpMzSw-37" value="pwrite" style="text;html=1;strokeColor=none;fillColor=none;align=center;verticalAlign=middle;whiteSpace=wrap;rounded=0;" parent="1" vertex="1">
          <mxGeometry x="1080" y="990" width="60" height="20" as="geometry" />
        </mxCell>
        <mxCell id="ItZJ6sBs6iK6BrgpMzSw-38" value="" style="endArrow=classic;html=1;rounded=0;" parent="1" edge="1">
          <mxGeometry width="50" height="50" relative="1" as="geometry">
            <mxPoint x="960" y="960" as="sourcePoint" />
            <mxPoint x="1080" y="960" as="targetPoint" />
          </mxGeometry>
        </mxCell>
        <mxCell id="ItZJ6sBs6iK6BrgpMzSw-39" value="penable" style="text;html=1;strokeColor=none;fillColor=none;align=center;verticalAlign=middle;whiteSpace=wrap;rounded=0;" parent="1" vertex="1">
          <mxGeometry x="1080" y="950" width="60" height="20" as="geometry" />
        </mxCell>
        <mxCell id="ItZJ6sBs6iK6BrgpMzSw-40" value="" style="endArrow=classic;html=1;rounded=0;" parent="1" edge="1">
          <mxGeometry width="50" height="50" relative="1" as="geometry">
            <mxPoint x="960" y="920" as="sourcePoint" />
            <mxPoint x="1080" y="920" as="targetPoint" />
          </mxGeometry>
        </mxCell>
        <mxCell id="ItZJ6sBs6iK6BrgpMzSw-41" value="psel" style="text;html=1;strokeColor=none;fillColor=none;align=center;verticalAlign=middle;whiteSpace=wrap;rounded=0;" parent="1" vertex="1">
          <mxGeometry x="1080" y="910" width="60" height="20" as="geometry" />
        </mxCell>
        <mxCell id="ItZJ6sBs6iK6BrgpMzSw-42" value="" style="endArrow=classic;html=1;rounded=0;" parent="1" edge="1">
          <mxGeometry width="50" height="50" relative="1" as="geometry">
            <mxPoint x="960" y="880" as="sourcePoint" />
            <mxPoint x="1080" y="880" as="targetPoint" />
          </mxGeometry>
        </mxCell>
        <mxCell id="ItZJ6sBs6iK6BrgpMzSw-43" value="paddr" style="text;html=1;strokeColor=none;fillColor=none;align=center;verticalAlign=middle;whiteSpace=wrap;rounded=0;" parent="1" vertex="1">
          <mxGeometry x="1080" y="870" width="60" height="20" as="geometry" />
        </mxCell>
        <mxCell id="ItZJ6sBs6iK6BrgpMzSw-44" value="" style="endArrow=classic;html=1;rounded=0;entryX=1.009;entryY=0.23;entryDx=0;entryDy=0;entryPerimeter=0;" parent="1" target="ItZJ6sBs6iK6BrgpMzSw-25" edge="1">
          <mxGeometry width="50" height="50" relative="1" as="geometry">
            <mxPoint x="1080" y="680" as="sourcePoint" />
            <mxPoint x="1160" y="680" as="targetPoint" />
          </mxGeometry>
        </mxCell>
        <mxCell id="ItZJ6sBs6iK6BrgpMzSw-45" value="pslverr" style="text;html=1;strokeColor=none;fillColor=none;align=center;verticalAlign=middle;whiteSpace=wrap;rounded=0;" parent="1" vertex="1">
          <mxGeometry x="1080" y="670" width="60" height="20" as="geometry" />
        </mxCell>
        <mxCell id="HOJ4O4t9uEl1U0cnfdn3-1" value="&lt;div&gt;&lt;br&gt;&lt;/div&gt;&lt;ol&gt;&lt;li&gt;Tách bridge thành 2 module: Wishbone slave và APB master.&lt;/li&gt;&lt;li style=&quot;border-color: var(--border-color);&quot;&gt;APB slave không cần viết theo FSM.&lt;/li&gt;&lt;li style=&quot;border-color: var(--border-color);&quot;&gt;APB master: have to obey operating state of APB protocol.&lt;/li&gt;&lt;/ol&gt;" style="shape=callout;whiteSpace=wrap;html=1;perimeter=calloutPerimeter;align=left;" vertex="1" parent="1">
          <mxGeometry x="320" y="1240" width="440" height="230" as="geometry" />
        </mxCell>
      </root>
    </mxGraphModel>
  </diagram>
</mxfile>
